<svg xmlns="http://www.w3.org/2000/svg" width="1200" height="560"><rect width="1200" height="560" fill="white"/>
<text x="65" y="30" font-family="sans-serif" font-size="18">cauldron: GPU graphics span including offload (ms)</text>
<path d="M65 470 H1180" stroke="#ddd"/><text x="5" y="470">0.0</text>
<path d="M65 390 H1180" stroke="#ddd"/><text x="5" y="390">3.3</text>
<path d="M65 310 H1180" stroke="#ddd"/><text x="5" y="310">6.6</text>
<path d="M65 230 H1180" stroke="#ddd"/><text x="5" y="230">9.8</text>
<path d="M65 150 H1180" stroke="#ddd"/><text x="5" y="150">13.1</text>
<path d="M65 70 H1180" stroke="#ddd"/><text x="5" y="70">16.4</text>
<polyline points="65.72,147.30 66.27,151.28 66.91,156.83 67.64,155.58 68.35,162.03 69.07,151.85 69.78,158.96 70.55,157.78 71.13,163.28 71.81,160.41 72.54,154.48 73.35,156.56 74.15,162.46 75.05,154.21 75.63,161.21 76.33,155.26 77.12,159.01 77.84,149.80 78.50,157.21 79.30,151.08 80.07,164.63 80.76,156.48 81.55,164.96 82.24,157.88 82.78,162.83 83.58,161.68 84.19,165.83 84.75,166.68 85.45,167.93 86.01,158.31 86.68,161.68 87.42,159.26 88.26,159.48 89.05,155.36 90.01,153.81 90.89,155.76 91.66,158.23 92.17,158.61 92.82,165.38 93.39,162.63 93.87,162.81 94.56,157.33 95.30,162.36 96.22,158.28 96.79,166.76 97.59,159.41 98.17,161.88 99.01,160.06 99.51,111.53 100.36,167.43 101.00,172.58 101.75,166.61 102.36,174.93 103.10,168.76 103.74,163.48 104.38,164.01 105.17,169.83 105.82,157.16 106.68,161.43 107.44,157.46 108.04,170.28 108.86,163.81 109.57,165.28 110.08,160.01 110.79,162.36 111.53,164.11 112.24,160.83 113.08,164.31 113.59,164.46 114.35,161.73 115.24,165.08 115.94,163.56 116.57,175.43 117.04,167.96 117.69,171.88 118.37,167.43 119.06,170.46 119.75,167.23 120.45,170.83 121.13,167.43 121.81,166.76 122.49,163.93 123.17,169.96 123.90,166.81 124.58,173.51 125.26,168.68 125.97,173.66 126.61,167.11 127.30,170.63 128.03,165.11 128.67,170.68 129.35,166.66 130.11,174.76 130.78,165.33 131.47,170.46 132.09,168.88 132.79,171.06 133.48,169.13 134.27,171.31 134.85,168.03 135.64,172.81 136.22,163.23 136.90,171.06 137.59,168.16 138.31,170.18 138.96,161.88 139.75,164.51 140.66,164.46 141.24,165.43 141.82,156.23 142.57,160.63 143.30,158.71 144.08,149.60 144.72,161.41 145.46,167.56 146.26,163.16 146.96,174.16 147.58,161.78 148.34,163.13 148.96,159.58 149.58,161.63 150.64,154.38 151.29,154.41 152.01,159.81 152.75,175.26 153.24,165.43 153.79,168.93 154.50,167.26 155.13,167.41 155.79,158.03 156.48,167.63 157.29,166.81 157.90,171.73 158.66,161.08 159.32,163.53 159.96,164.78 160.69,161.76 161.39,161.33 162.10,167.11 162.80,163.63 163.49,170.01 164.25,163.01 165.01,163.83 165.70,161.26 166.24,163.48 166.90,160.43 167.62,165.21 168.37,159.73 169.07,167.88 169.87,153.26 170.48,154.23 171.34,157.73 172.08,153.03 172.78,152.55 173.67,159.98 174.33,157.86 174.87,163.26 175.62,153.51 176.22,157.08 177.08,150.50 177.78,145.75 178.45,149.73 179.34,156.16 179.86,153.05 180.72,158.78 181.48,155.66 182.09,162.88 182.77,156.51 183.41,161.61 184.08,157.91 184.95,158.01 185.50,156.48 186.22,163.41 186.97,148.93 187.70,161.66 188.43,157.58 189.11,113.03 189.85,157.46 190.51,160.61 191.32,155.76 192.02,165.28 192.74,158.61 193.48,160.61 194.16,153.71 194.86,159.31 195.58,156.28 196.29,159.73 197.03,147.20 197.73,163.76 198.45,156.46 199.18,158.56 199.83,154.56 200.57,154.06 201.25,155.31 201.99,156.46 202.80,154.06 203.53,163.23 204.23,152.58 204.97,156.11 205.57,154.83 206.28,158.71 207.00,147.88 207.72,159.58 208.43,152.45 209.18,159.73 209.98,152.48 210.60,159.06 211.29,155.16 212.02,152.43 212.73,154.86 213.56,159.91 214.22,153.63 214.95,162.53 215.67,154.76 216.36,159.21 217.09,153.66 217.78,159.53 218.50,155.08 219.30,159.91 220.06,156.98 220.71,163.13 221.39,140.95 222.10,158.43 222.77,153.23 223.53,155.81 224.28,154.91 224.99,155.83 225.84,154.36 226.46,163.13 227.17,155.08 227.82,160.81 228.52,152.83 229.26,156.66 229.94,153.91 230.69,161.01 231.50,154.38 232.15,163.16 232.90,154.23 233.59,163.68 234.26,153.53 234.98,149.63 235.68,151.78 236.41,160.26 237.32,152.65 237.86,164.26 238.59,156.06 239.34,158.81 239.99,139.15 240.72,162.96 241.42,155.31 242.18,162.06 242.99,156.11 243.64,165.53 244.49,156.78 245.04,161.76 245.73,156.23 246.56,156.33 247.18,156.06 247.89,161.96 248.61,157.68 249.31,163.78 250.02,157.76 250.70,161.43 251.40,157.03 252.19,160.58 253.00,156.78 253.71,165.18 254.23,158.78 254.95,164.98 255.69,155.96 256.37,166.21 257.06,141.33 257.78,157.41 258.41,160.71 259.18,163.63 260.00,158.56 260.64,167.66 261.34,160.08 262.05,165.58 262.74,158.26 263.45,166.23 264.14,162.18 264.86,164.18 265.57,161.33 266.26,170.71 266.97,161.63 267.68,164.01 268.34,161.93 269.06,163.91 269.78,163.78 270.44,168.63 271.14,162.93 271.91,171.81 272.58,164.71 273.28,162.41 273.97,163.63 274.68,170.53 275.36,151.90 276.08,171.63 276.78,164.28 277.48,176.01 278.09,169.03 278.81,171.21 279.58,161.78 280.17,126.50 280.83,168.31 281.53,171.91 282.33,168.91 283.02,174.58 283.70,167.18 284.37,173.21 285.09,167.61 285.76,177.16 286.44,169.83 287.12,174.98 287.81,170.06 288.49,176.43 289.16,169.16 289.92,176.36 290.51,165.66 291.20,166.68 291.89,169.33 292.62,175.98 293.31,159.21 293.95,175.83 294.59,170.18 295.29,174.48 295.98,172.86 296.70,177.58 297.35,171.16 298.04,178.66 298.70,172.96 299.41,177.81 300.05,172.23 300.72,177.06 301.40,173.83 302.09,171.78 302.77,166.58 303.43,175.63 304.12,170.38 304.75,179.03 305.44,171.73 306.13,173.93 306.79,169.13 307.49,173.26 308.21,170.16 308.88,177.18 309.54,172.33 310.23,179.31 310.88,173.18 311.53,175.81 312.20,169.36 312.93,170.93 313.61,170.43 314.28,177.91 314.96,170.03 315.68,178.53 316.25,172.33 316.93,177.78 317.60,169.53 318.34,179.83 318.98,172.76 319.67,177.61 320.33,173.93 321.02,176.63 321.69,170.33 322.40,175.03 323.09,173.86 323.72,163.16 324.37,167.43 325.11,176.46 325.85,175.23 326.45,180.61 327.12,175.08 327.76,173.48 328.43,170.81 329.15,172.28 329.81,173.61 330.50,179.28 331.17,173.03 331.87,177.81 332.52,171.31 333.21,180.58 333.85,174.93 334.53,173.91 335.21,170.03 335.88,177.56 336.58,172.11 337.26,177.46 337.98,172.66 338.62,176.63 339.22,169.48 339.89,178.83 340.57,173.61 341.26,179.21 341.97,173.76 342.64,180.56 343.31,172.91 343.99,174.96 344.65,171.76 345.34,171.21 346.00,172.08 346.65,177.11 347.37,168.26 348.08,179.31 348.71,172.28 349.40,174.93 350.08,169.61 350.70,176.66 351.42,173.61 352.10,172.01 352.80,168.21 353.50,176.93 354.17,171.91 354.81,175.73 355.47,171.96 356.18,173.43 356.86,171.01 357.52,172.46 358.20,168.68 358.94,166.76 359.64,167.11 360.33,175.08 360.96,171.68 361.65,176.63 362.35,168.21 363.01,173.33 363.66,169.86 364.34,171.31 365.03,164.43 365.96,167.36 366.50,170.63 367.18,127.80 367.80,170.81 368.47,174.41 369.26,171.08 369.96,175.33 370.61,168.83 371.30,169.18 371.96,167.78 372.67,172.43 373.31,168.26 374.00,170.18 374.71,166.53 375.40,170.88 376.07,165.96 376.88,170.26 377.49,165.76 378.18,165.46 378.84,161.26 379.60,170.91 380.26,164.23 380.94,171.53 381.62,163.93 382.32,166.68 383.01,161.13 383.72,168.13 384.43,164.93 385.07,167.71 385.75,163.13 386.49,169.61 387.20,158.93 387.92,168.03 388.67,160.88 389.29,157.68 389.96,160.76 390.68,165.33 391.37,161.91 392.10,170.06 392.79,160.86 393.50,167.71 394.18,158.73 394.92,166.73 395.58,161.71 396.29,164.31 396.98,160.08 397.71,168.36 398.41,159.88 399.11,165.01 399.81,156.18 400.50,158.46 401.22,158.61 401.93,164.08 402.62,161.33 403.38,167.61 404.02,151.35 404.73,163.86 405.51,159.96 406.16,165.13 406.84,159.06 407.55,164.03 408.29,159.61 408.96,164.76 409.67,158.01 410.38,164.23 411.08,158.76 411.82,148.93 412.50,158.66 413.24,165.56 413.94,156.33 414.64,165.61 415.41,158.68 416.06,159.96 416.78,157.56 417.60,158.96 418.14,155.66 418.90,163.63 419.57,158.63 420.28,165.06 420.99,156.73 421.70,160.63 422.40,158.58 423.16,156.86 423.82,157.81 424.52,161.56 425.25,155.61 425.95,165.56 426.66,154.26 427.42,156.68 428.11,155.68 428.85,163.21 429.52,152.15 430.23,162.56 430.99,154.48 431.66,165.81 432.38,155.91 433.09,158.03 433.78,155.53 434.54,156.83 435.24,153.46 435.97,160.78 436.66,156.81 437.37,158.23 438.07,147.70 438.96,149.53 439.66,147.18 440.62,154.31 441.25,136.45 441.97,157.51 442.80,150.03 443.33,149.43 444.03,146.88 445.02,148.83 445.73,149.35 446.35,155.78 447.12,146.43 447.78,154.03 448.57,150.98 449.19,163.06 449.98,157.61 450.57,164.68 451.21,158.11 451.93,161.23 452.62,157.21 453.33,163.26 454.01,160.21 454.73,166.08 455.42,154.66 456.14,163.68 456.85,158.28 457.55,113.85 458.27,160.13 459.00,162.03 459.80,156.38 460.51,166.21 461.22,157.51 461.93,162.78 462.64,157.73 463.40,164.03 464.05,160.01 464.76,161.43 465.46,155.46 466.16,164.03 466.91,156.11 467.69,161.48 468.31,146.78 469.06,144.15 469.87,155.98 470.71,161.11 471.22,157.61 471.94,160.88 472.66,148.28 473.42,162.23 474.23,158.66 474.81,162.68 475.54,157.01 476.22,164.21 476.89,156.08 477.62,165.93 478.33,158.16 479.09,164.01 479.71,158.01 480.47,158.78 481.16,159.38 481.84,162.23 482.56,153.76 483.26,160.93 483.95,159.16 484.69,159.98 485.38,157.61 486.19,165.08 486.78,160.66 487.49,165.36 488.22,159.98 488.93,166.03 489.63,159.03 490.35,162.38 491.05,155.46 491.74,161.91 492.46,161.76 493.15,165.33 493.86,160.86 494.53,171.63 495.26,162.21 495.97,165.76 496.73,160.71 497.36,159.46 498.05,162.86 498.75,163.68 499.47,158.83 500.23,159.06 500.92,148.93 501.78,164.48 502.73,154.71 503.09,144.83 503.81,154.31 504.72,159.71 505.45,154.96 506.12,158.88 506.82,144.33 507.47,151.68 508.42,157.03 509.10,157.33 509.81,152.53 510.53,166.08 511.16,159.63 511.77,166.66 512.45,164.23 513.10,165.81 513.76,166.83 514.48,167.18 515.22,160.61 515.91,166.68 516.58,161.93 517.28,170.51 517.99,163.86 518.67,166.03 519.33,162.51 520.02,167.98 520.76,163.83 521.44,169.28 522.10,164.51 522.81,171.93 523.49,164.28 524.20,168.41 524.87,163.31 525.57,165.73 526.26,163.28 526.95,168.91 527.65,160.21 528.37,173.88 529.08,167.58 529.81,169.88 530.44,163.01 531.13,176.18 531.85,162.86 532.61,170.31 533.27,166.08 533.94,173.03 534.58,159.11 535.29,170.28 536.05,161.26 536.67,165.21 537.33,166.81 538.07,170.08 538.74,165.18 539.44,169.38 540.11,161.98 540.82,171.11 541.53,163.01 542.22,170.61 542.91,166.88 543.60,170.18 544.28,164.73 544.98,171.13 545.65,161.11 546.35,167.61 547.08,164.26 547.80,120.98 548.46,164.53 549.14,170.66 549.94,166.03 550.63,171.86 551.33,161.68 552.03,170.33 552.71,163.88 553.41,162.86 554.09,159.81 554.82,173.88 555.56,168.56 556.24,172.63 556.91,160.46 557.57,169.73 558.24,165.76 558.99,165.21 559.69,164.66 560.35,171.11 561.03,165.98 561.73,170.88 562.41,164.98 563.14,169.16 563.79,164.61 564.48,168.78 565.17,166.88 565.91,168.18 566.65,166.46 567.32,170.93 567.97,166.88 568.73,168.88 569.46,166.96 570.05,166.91 570.71,165.28 571.44,172.76 572.10,164.66 572.79,168.33 573.47,165.58 574.17,167.86 574.86,164.18 575.56,169.73 576.24,156.78 576.97,166.48 577.69,162.93 578.38,167.53 579.05,163.16 579.79,164.71 580.47,163.03 581.18,163.91 581.84,164.16 582.63,167.78 583.27,162.33 583.97,166.01 584.66,162.38 585.35,166.16 586.06,160.31 586.77,164.66 587.46,159.71 588.18,165.18 588.85,156.83 589.65,164.23 590.30,159.71 590.92,164.23 591.62,154.43 592.33,150.53 593.09,159.36 593.84,164.08 594.52,158.53 595.23,163.23 595.96,157.33 596.66,159.88 597.35,155.53 598.05,164.28 598.75,151.33 599.46,161.03 600.17,156.86 600.88,165.08 601.63,158.93 602.34,161.63 603.00,157.41 603.75,156.31 604.42,155.11 605.16,160.86 605.85,155.08 606.56,164.18 607.28,154.51 607.99,157.86 608.69,156.58 609.46,158.31 610.16,155.18 610.90,158.81 611.59,152.70 612.32,163.98 613.04,156.91 613.70,160.83 614.39,155.71 615.15,153.18 615.86,153.76 616.58,156.93 617.35,146.20 618.01,164.43 618.73,155.06 619.46,157.83 620.21,154.43 620.86,159.31 621.58,154.31 622.29,160.01 623.05,154.33 623.72,164.13 624.43,153.73 625.14,158.03 625.85,155.81 626.57,155.68 627.29,147.45 628.00,158.46 628.71,154.71 629.46,160.21 630.16,153.63 630.89,158.43 631.62,156.23 632.35,160.51 633.06,154.13 633.78,160.86 634.47,148.55 635.20,160.96 635.96,154.43 636.60,157.38 637.35,153.51 638.06,115.50 638.78,155.03 639.53,160.33 640.34,155.71 641.03,161.78 641.74,137.53 642.44,157.93 643.14,155.71 643.91,161.53 644.63,152.15 645.37,154.63 646.06,137.95 646.94,158.78 647.83,141.95 648.41,149.28 649.36,149.70 650.00,144.88 650.72,151.45 651.59,153.96 652.01,142.78 652.94,151.43 653.72,147.45 654.52,149.08 655.18,148.13 655.97,153.83 656.50,133.55 657.22,151.15 657.99,157.08 658.77,163.33 659.27,158.06 659.99,160.68 660.71,137.40 661.43,158.36 662.14,155.76 662.93,158.16 663.61,159.51 664.33,166.73 665.06,153.61 665.72,164.46 666.48,157.78 667.14,163.21 667.84,157.61 668.63,158.66 669.26,158.33 670.02,166.63 670.76,157.38 671.40,163.28 672.08,158.63 672.78,157.51 673.48,153.91 674.23,153.41 675.11,154.03 675.92,156.26 676.65,146.05 677.39,161.01 678.05,134.83 678.64,150.25 679.56,154.28 680.31,151.58 680.96,148.93 681.87,161.01 682.34,148.20 683.22,156.23 683.86,155.78 684.68,149.98 685.18,162.61 685.93,163.11 686.56,161.81 687.30,167.53 687.95,160.86 688.70,165.81 689.39,164.66 690.10,168.58 690.79,162.21 691.51,167.11 692.17,164.86 692.89,171.13 693.56,162.06 694.24,167.76 694.92,162.78 695.65,168.68 696.38,151.35 697.07,169.03 697.71,166.11 698.43,174.06 699.11,165.16 699.86,169.28 700.57,167.23 701.24,170.46 701.91,167.88 702.62,173.28 703.30,167.63 704.11,177.43 704.65,165.66 705.36,170.91 706.05,165.33 706.75,167.18 707.51,159.78 708.11,163.18 709.09,152.80 709.79,167.78 710.55,164.06 711.33,163.33 711.89,158.33 713.03,160.76 713.63,155.48 714.21,159.18 714.88,134.95 715.79,172.41 716.34,161.11 716.99,172.93 717.58,173.01 718.17,172.86 718.68,172.66 719.37,171.48 720.07,173.21 720.77,177.51 721.40,170.03 722.11,174.71 722.78,172.41 723.49,176.23 724.11,170.78 724.92,171.68 725.44,157.48 726.35,171.53 727.04,158.21 727.93,163.43 728.51,161.68 729.17,124.33 730.10,163.78 730.47,170.18 731.38,163.66 732.00,163.56 732.70,161.43 733.46,167.26 734.19,160.98 734.84,160.26 735.51,171.46 736.35,177.81 736.74,170.08 737.44,176.93 738.08,172.81 738.82,177.11 739.43,169.68 740.20,174.01 740.78,169.96 741.47,170.91 742.12,169.58 742.88,176.16 743.62,167.41 744.31,170.28 744.94,166.71 745.56,173.28 746.27,169.66 746.96,171.21 747.68,166.53 748.35,173.83 749.06,166.06 749.71,169.03 750.50,167.33 751.22,169.36 751.77,170.33 752.55,174.16 753.13,169.73 753.91,174.98 754.55,169.51 755.23,170.83 755.93,167.86 756.61,176.53 757.30,168.21 757.89,176.23 758.56,169.76 759.36,176.88 759.98,165.76 760.63,172.53 761.31,167.83 762.06,170.41 762.68,165.21 763.36,175.73 764.16,171.23 764.75,174.83 765.42,167.56 766.25,171.01 766.79,169.26 767.57,175.61 768.16,169.73 768.91,172.18 769.49,169.41 770.19,177.63 770.86,169.13 771.55,170.06 772.29,166.28 772.94,163.68 773.68,172.21 774.33,175.86 775.03,169.71 775.69,176.76 776.38,165.86 777.04,171.73 777.78,160.01 778.47,172.96 779.19,170.01 779.87,173.63 780.52,164.78 781.20,173.61 781.90,167.76 782.58,170.18 783.24,168.11 783.93,168.76 784.63,168.56 785.31,172.71 786.01,166.26 786.67,171.06 787.37,167.56 788.13,169.83 788.80,166.61 789.41,173.91 790.13,172.21 790.82,177.11 791.50,168.48 792.16,173.68 792.83,165.13 793.53,171.08 794.18,167.01 794.95,164.08 795.58,166.06 796.28,172.51 796.99,165.96 797.66,170.06 798.32,163.08 799.04,170.86 799.74,166.78 800.41,167.73 801.14,160.01 801.78,171.26 802.46,167.93 803.28,172.61 803.87,163.46 804.56,166.33 805.25,164.01 805.95,164.23 806.76,163.16 807.41,165.03 808.06,161.66 808.74,168.66 809.42,160.58 810.13,165.13 810.85,158.31 811.55,164.31 812.28,160.26 812.94,164.03 813.64,161.48 814.40,167.83 815.12,158.26 815.74,163.61 816.52,162.11 817.20,119.13 817.93,157.66 818.55,167.23 819.34,161.61 820.07,166.43 820.76,157.73 821.47,164.03 822.26,159.96 822.86,166.33 823.60,158.58 824.30,163.78 825.04,157.93 825.68,166.43 826.46,155.28 827.19,164.01 827.78,159.86 828.51,158.48 829.24,157.28 829.99,165.01 830.64,158.41 831.47,164.93 832.06,157.88 832.77,159.83 833.59,155.66 834.23,163.93 835.00,156.68 835.72,163.08 836.44,159.28 837.05,167.33 837.74,158.11 838.56,161.36 839.20,156.51 839.89,160.06 840.61,154.78 841.28,158.93 841.96,158.38 842.76,165.43 843.38,154.21 844.09,159.91 844.77,159.18 845.55,157.73 846.30,156.86 846.93,159.63 847.61,154.51 848.37,165.61 849.05,152.65 849.76,161.58 850.51,155.51 851.28,155.83 851.90,157.13 852.64,164.66 853.33,154.06 854.05,159.63 854.77,156.43 855.48,158.71 856.18,154.78 856.90,161.28 857.60,157.13 858.41,161.53 859.02,155.38 859.72,167.11 860.50,156.76 861.21,159.33 861.87,156.71 862.58,149.33 863.28,156.23 864.07,160.91 864.76,160.18 865.51,166.53 866.14,154.76 866.85,159.28 867.56,157.83 868.27,161.01 868.97,155.66 869.75,161.73 870.48,157.91 871.12,164.31 871.83,158.08 872.53,162.68 873.24,157.06 873.95,158.66 874.65,155.41 875.44,162.83 876.07,157.23 876.81,165.28 877.49,157.93 878.27,163.41 878.92,157.93 879.61,163.68 880.32,157.21 881.03,161.08 881.74,157.38 882.45,161.71 883.15,157.63 883.87,160.03 884.58,155.53 885.31,156.91 885.98,156.31 886.76,163.03 887.43,155.26 888.18,165.96 888.84,151.68 889.55,160.08 890.26,154.33 891.05,162.21 891.72,153.23 892.41,159.16 893.14,157.36 893.88,163.21 894.68,156.06 895.32,162.31 896.07,156.68 896.81,156.11 897.44,156.53 898.13,159.76 898.86,159.31 899.58,159.76 900.25,153.15 901.07,153.38 901.75,157.11 902.54,159.23 903.18,157.68 903.87,163.78 904.56,159.36 905.24,168.43 905.96,158.73 906.63,164.63 907.32,158.21 908.10,114.05 908.72,160.18 909.44,164.03 910.29,159.91 910.97,163.18 911.68,158.81 912.43,165.93 913.17,158.16 913.88,165.36 914.53,159.38 915.21,162.11 915.93,159.36 916.63,167.86 917.45,160.96 918.05,161.48 918.82,162.71 919.44,162.06 920.14,162.61 920.92,165.18 921.55,161.01 922.25,170.33 923.04,161.71 923.67,161.06 924.32,161.91 925.13,166.63 925.77,161.28 926.50,164.63 927.20,161.56 927.92,170.11 928.60,156.86 929.38,163.93 930.14,165.93 930.69,164.46 931.36,163.48 932.07,167.56 932.82,160.53 933.52,162.01 934.14,150.20 935.11,155.28 935.84,154.06 936.61,158.98 937.32,150.00 938.10,160.58 938.76,154.11 939.52,168.68 940.30,161.61 941.00,161.93 941.48,154.16 942.30,159.46 943.01,148.38 943.72,153.78 944.47,154.83 945.19,160.08 945.91,167.68 946.53,173.43 947.13,159.46 947.86,167.46 948.56,165.63 949.11,167.96 949.82,163.38 950.50,171.78 951.20,163.76 951.97,170.51 952.66,164.11 953.26,155.68 953.94,167.06 954.65,169.96 955.46,163.36 956.03,173.46 956.74,166.38 957.54,166.26 958.14,160.81 958.85,168.06 959.52,166.73 960.26,167.16 960.95,160.43 961.66,170.83 962.36,165.01 963.06,168.01 963.69,164.26 964.46,161.43 965.14,165.01 965.90,167.51 966.52,153.63 967.22,165.41 968.18,155.68 968.85,163.31 969.49,160.18 970.37,157.56 970.79,159.41 971.67,161.83 972.35,150.95 973.18,162.91 973.79,156.98 974.80,165.51 975.27,157.38 975.82,161.53 976.64,166.11 977.27,171.48 977.87,166.68 978.57,174.43 979.22,157.91 979.89,169.16 980.63,165.23 981.27,170.58 982.00,166.46 982.73,167.81 983.39,165.78 984.05,175.16 984.75,165.21 985.42,167.38 986.10,163.51 986.83,166.26 987.48,164.16 988.17,169.48 988.87,163.71 989.65,172.56 990.25,165.18 991.00,170.03 991.72,163.23 992.38,168.83 993.02,167.53 993.73,171.98 994.42,167.28 995.09,172.13 995.82,161.96 996.47,170.01 997.17,162.96 997.87,115.63 998.69,157.61 999.27,166.71 1000.09,162.83 1000.89,169.38 1001.58,157.23 1002.19,167.01 1002.87,165.13 1003.60,169.11 1004.29,166.21 1004.97,169.86 1005.65,162.96 1006.35,168.63 1007.03,160.36 1007.74,165.31 1008.42,158.23 1009.11,160.78 1009.89,159.56 1010.54,165.88 1011.37,161.21 1011.95,167.33 1012.69,158.18 1013.37,163.08 1014.05,155.83 1014.79,159.73 1015.62,158.91 1016.21,162.56 1016.98,157.91 1017.62,165.96 1018.29,158.78 1019.01,163.08 1019.72,156.78 1020.42,155.51 1021.11,153.38 1021.85,160.18 1022.53,154.03 1023.32,164.68 1024.02,155.61 1024.80,155.08 1025.41,156.21 1026.17,161.83 1026.88,156.33 1027.55,158.68 1028.26,155.33 1028.98,162.21 1029.69,152.23 1030.41,158.93 1031.11,156.61 1031.83,154.16 1032.62,153.63 1033.34,161.73 1034.01,155.26 1034.68,160.68 1035.40,153.51 1036.15,158.91 1036.85,155.56 1037.56,160.23 1038.25,153.10 1038.96,160.01 1039.70,145.75 1040.40,162.13 1041.12,153.88 1041.86,150.35 1042.62,146.58 1043.55,141.10 1044.19,148.95 1044.86,153.83 1045.65,151.70 1046.35,152.80 1047.04,147.50 1048.02,145.80 1048.64,149.00 1049.43,154.33 1050.14,144.88 1050.90,148.93 1051.52,140.80 1052.27,158.23 1053.20,152.68 1053.91,158.96 1054.30,153.18 1055.03,156.01 1055.79,154.96 1056.53,157.43 1057.28,144.20 1057.89,160.96 1058.60,152.78 1059.41,159.81 1060.04,154.91 1060.77,160.21 1061.52,150.55 1062.20,159.51 1062.94,154.76 1063.73,161.58 1064.46,138.83 1065.19,159.36 1065.82,152.28 1066.65,154.46 1067.35,151.95 1067.97,159.18 1068.70,156.18 1069.41,161.66 1070.13,152.33 1070.93,158.91 1071.55,153.28 1072.41,160.21 1073.02,153.53 1073.74,159.61 1074.42,156.26 1075.13,163.21 1075.85,154.98 1076.63,158.98 1077.29,155.21 1078.00,156.31 1078.71,155.13 1079.41,159.38 1080.12,155.53 1080.98,163.06 1081.58,149.70 1082.33,159.46 1082.99,139.85 1083.78,162.08 1084.48,157.48 1085.28,162.41 1085.89,156.08 1086.59,165.38 1087.38,157.13 1088.11,161.93 1088.71,154.46 1089.43,113.28 1090.17,158.98 1090.86,163.13 1091.65,159.43 1092.47,164.13 1093.07,158.41 1093.85,161.28 1094.47,157.38 1095.18,164.11 1095.93,157.43 1096.62,163.78 1097.41,160.16 1098.02,168.13 1098.72,154.78 1099.50,159.53 1100.14,143.08 1100.87,157.83 1101.56,155.68 1102.36,165.18 1103.01,162.76 1103.72,167.51 1104.40,158.58 1105.25,164.41 1105.83,159.96 1106.62,165.28 1107.34,160.51 1107.93,167.78 1108.62,162.18 1109.32,169.53 1110.01,159.81 1110.72,167.81 1111.48,161.43 1112.24,161.03 1112.88,163.08 1113.54,166.83 1114.33,161.26 1114.94,167.98 1115.65,162.33 1116.41,167.91 1117.11,161.06 1117.73,170.36 1118.44,153.83 1119.15,172.81 1119.80,167.03 1120.52,170.48 1121.20,164.13 1121.90,170.96 1122.73,164.81 1123.31,167.76 1124.02,165.03 1124.68,171.61 1125.36,167.01 1126.06,174.08 1126.75,167.63 1127.44,172.31 1128.15,169.41 1128.80,171.41 1129.47,168.23 1130.17,170.91 1130.96,171.46 1131.55,177.98 1132.28,169.26 1132.89,171.98 1133.56,165.56 1134.26,159.76 1134.94,169.61 1135.66,172.91 1136.34,162.08 1137.01,179.18 1137.70,170.63 1138.41,172.11 1139.05,170.06 1139.79,176.58 1140.45,170.83 1141.19,175.26 1141.79,169.51 1142.48,180.71 1143.16,170.71 1143.83,168.53 1144.58,171.06 1145.30,171.58 1145.93,172.88 1146.67,174.93 1147.27,170.56 1147.95,175.46 1148.62,172.93 1149.32,174.36 1149.95,164.71 1150.64,173.08 1151.32,169.38 1152.05,174.01 1152.68,170.31 1153.38,175.38 1154.12,168.43 1154.73,172.28 1155.42,168.13 1156.08,167.88 1156.89,172.78 1157.52,173.76 1158.28,165.73 1158.85,175.41 1159.52,168.11 1160.21,174.61 1160.93,167.11 1161.57,172.21 1162.28,167.21 1162.97,171.03 1163.63,172.83 1164.31,174.81 1165.11,166.46 1165.68,172.93 1166.42,166.91 1167.06,167.61 1167.75,169.66 1168.48,175.18 1169.18,167.73 1169.85,170.06 1170.51,167.81 1171.19,171.36 1171.89,169.56 1172.58,175.53 1173.31,166.43 1174.02,171.08 1174.61,165.63 1175.32,177.28 1176.01,169.41 1176.68,174.26 1177.34,161.93" fill="none" stroke="#2563eb" stroke-width=".8" opacity=".65"/><text x="65" y="525" fill="#2563eb">A1</text>
<polyline points="65.74,146.20 66.53,144.48 67.26,145.13 67.99,139.93 68.72,145.78 69.46,142.13 70.20,145.83 70.95,141.73 71.69,97.08 72.52,143.75 73.21,150.43 74.04,144.33 74.79,151.83 75.51,145.10 76.25,149.45 77.00,144.93 77.71,142.50 78.45,146.58 79.29,143.53 80.01,144.73 80.72,151.33 81.46,147.05 82.21,148.78 82.96,145.58 83.68,148.93 84.38,145.08 85.14,152.28 85.91,143.93 86.63,155.06 87.38,146.98 88.07,151.38 88.78,148.15 89.53,151.60 90.24,148.20 91.02,152.33 91.76,141.43 92.47,156.41 93.18,143.63 93.93,146.28 94.67,144.90 95.40,144.90 96.16,135.85 96.91,155.38 97.68,149.03 98.43,153.83 99.10,147.13 99.86,155.23 100.57,150.18 101.31,154.96 102.03,152.23 102.78,151.85 103.48,150.60 104.25,159.06 104.96,153.23 105.66,157.23 106.35,151.43 107.10,151.45 107.79,149.18 108.53,154.76 109.30,153.38 109.99,160.78 110.72,149.63 111.48,154.93 112.21,149.50 112.86,154.43 113.59,153.21 114.30,156.73 115.10,149.03 115.79,153.41 116.51,147.28 117.35,152.13 118.09,143.95 118.82,140.40 119.47,151.90 120.15,159.41 120.99,153.26 121.62,160.16 122.34,147.90 123.05,151.98 123.81,151.10 124.53,155.83 125.23,144.88 125.98,155.88 126.72,148.38 127.45,156.61 128.17,153.26 128.90,157.16 129.61,147.00 130.30,153.83 131.02,149.15 131.76,152.83 132.50,145.80 133.23,159.08 133.97,149.15 134.71,155.48 135.49,150.25 136.26,156.73 136.95,152.85 137.69,154.06 138.32,151.63 139.12,157.68 139.81,146.43 140.53,156.63 141.20,149.75 141.96,137.88 142.68,137.88 143.74,141.50 144.38,137.78 145.15,151.18 145.91,146.45 146.67,146.55 147.40,140.75 148.07,141.73 149.74,144.95 150.21,143.90 150.84,141.55 151.28,149.48 151.97,134.63 152.66,143.33 153.34,138.93 154.19,135.93 155.10,142.95 155.75,147.60 156.26,134.93 157.13,150.65 157.74,145.63 158.57,149.73 159.21,139.40 159.96,152.08 160.63,140.20 161.33,149.98 162.07,148.08 162.83,154.76 163.54,149.28 164.27,153.08 165.00,146.93 165.73,100.48 166.47,148.95 167.24,146.23 168.09,139.85 168.83,151.30 169.52,145.80 170.27,149.70 171.01,149.03 171.77,149.53 172.48,139.75 173.20,149.15 173.94,140.13 174.71,145.68 175.43,142.80 176.17,142.33 176.91,134.55 177.79,139.28 178.59,139.50 179.27,147.20 180.01,140.10 180.89,141.90 181.49,136.53 182.26,135.60 183.09,138.83 183.97,136.93 184.65,132.55 185.47,141.05 186.16,127.83 187.15,136.65 187.87,124.00 188.69,130.85 189.57,133.20 190.20,129.35 190.65,125.03 191.61,133.93 192.42,131.63 193.25,134.68 193.80,129.10 194.83,129.73 195.45,130.93 196.23,139.18 197.01,129.50 197.78,125.38 198.57,123.38 199.48,139.73 200.25,133.60 200.99,139.88 201.60,129.25 202.37,131.23 203.25,135.18 203.98,138.20 204.65,125.05 205.60,138.68 206.19,133.65 207.09,146.30 207.72,137.00 208.48,137.38 209.25,138.80 209.95,142.48 210.64,137.70 211.43,148.33 212.19,138.93 212.94,142.63 213.71,138.35 214.46,125.63 215.13,131.55 215.92,143.83 216.73,137.98 217.46,145.90 218.22,138.93 218.95,141.73 219.68,138.13 220.43,143.43 221.19,131.00 221.95,140.93 222.69,135.98 223.46,142.95 224.26,135.28 225.00,146.78 225.73,140.53 226.49,134.30 227.24,140.35 228.05,144.88 228.77,140.60 229.53,148.43 230.29,124.83 231.04,141.90 231.77,138.93 232.55,144.98 233.27,139.55 234.05,141.73 234.77,138.40 235.53,149.35 236.28,140.20 237.05,145.13 237.78,138.23 238.53,139.60 239.29,136.70 240.03,146.30 240.78,139.85 241.55,148.25 242.35,139.08 243.04,148.75 243.77,145.60 244.57,145.60 245.30,139.20 246.01,142.83 246.76,134.38 247.50,151.33 248.29,138.68 249.04,140.53 249.75,124.43 250.52,138.85 251.36,138.58 252.07,146.08 252.81,138.95 253.57,146.80 254.37,137.65 255.09,147.18 255.82,141.55 256.59,146.08 257.39,142.73 258.08,149.28 258.82,143.58 259.54,147.43 260.34,135.00 261.09,149.38 261.83,134.13 262.53,100.68 263.30,139.25 264.03,141.85 264.88,145.45 265.61,153.53 266.35,137.60 267.10,148.63 267.85,123.05 268.63,144.90 269.35,144.03 270.30,149.63 270.91,143.18 271.65,154.13 272.39,144.23 273.12,150.15 273.83,143.08 274.59,146.58 275.36,135.15 276.03,146.65 276.87,146.43 277.58,153.71 278.37,143.63 279.02,151.93 279.73,144.78 280.49,150.15 281.24,140.08 281.94,148.28 282.75,128.53 283.51,143.68 284.42,145.18 285.21,147.35 285.81,143.83 286.59,142.65 287.36,130.40 288.09,154.28 288.79,142.33 289.54,149.18 290.38,139.83 291.04,150.53 291.83,141.28 292.48,148.45 293.39,145.85 294.02,153.63 294.76,147.33 295.53,156.78 296.24,145.95 296.89,153.08 297.62,144.65 298.36,149.80 299.13,148.98 299.87,149.45 300.61,150.18 301.42,159.13 302.07,155.93 302.71,159.03 303.43,149.03 304.12,161.48 304.80,144.30 305.54,153.05 306.30,141.90 307.06,162.06 307.79,153.56 308.49,162.71 309.19,155.51 309.89,139.30 310.62,145.43 311.43,144.95 312.19,149.68 313.06,157.93 313.72,154.21 314.46,153.71 315.16,144.90 315.91,153.33 316.57,145.70 317.30,150.83 318.16,148.15 318.96,156.28 319.57,149.15 320.38,155.83 320.99,153.48 321.68,146.20 322.48,141.55 323.26,151.75 323.93,145.90 324.73,147.50 325.46,153.43 326.25,149.95 326.79,150.30 327.60,159.93 328.29,151.33 328.98,159.23 329.72,153.33 330.40,162.11 331.04,152.23 331.75,159.16 332.45,153.48 333.20,153.23 333.91,155.23 334.65,161.01 335.39,156.03 336.05,162.58 336.79,154.43 337.49,159.28 338.21,157.81 338.91,161.66 339.64,152.38 340.41,159.81 341.15,152.50 341.77,161.73 342.56,156.11 343.26,159.66 343.93,154.16 344.63,155.83 345.33,145.23 346.05,158.13 346.85,148.78 347.60,155.38 348.45,147.93 349.25,152.68 349.78,145.00 350.61,149.65 351.43,144.83 352.21,153.58 352.82,150.15 353.55,157.43 354.27,153.56 354.98,145.25 355.62,144.08 356.49,103.53 357.19,143.85 357.89,153.46 358.77,140.38 359.53,152.98 360.45,147.18 360.94,150.70 361.71,153.91 362.44,149.98 363.12,152.85 363.89,152.48 364.53,158.96 365.30,162.63 365.91,151.60 366.60,156.66 367.42,155.61 368.05,154.88 368.81,157.58 369.52,161.38 370.21,154.41 370.92,162.13 371.64,155.71 372.34,161.56 373.06,154.33 373.76,158.63 374.48,155.26 375.18,158.36 375.92,148.55 376.61,147.95 377.33,150.53 378.10,153.81 378.85,150.38 379.58,148.83 380.34,151.53 381.02,155.18 381.76,147.68 382.50,155.16 383.31,145.75 383.94,149.23 384.69,138.85 385.50,148.70 386.47,146.48 387.97,149.78 388.49,141.25 388.80,150.40 389.41,146.45 390.21,145.48 390.90,144.40 391.58,144.33 392.30,145.48 393.27,152.25 393.87,143.23 394.41,151.33 395.17,141.60 395.86,144.13 396.66,139.43 397.49,143.00 398.10,133.50 398.85,144.10 399.64,143.03 400.39,147.55 401.11,139.18 401.86,152.33 402.60,149.60 403.33,135.03 403.95,149.38 404.66,150.80 405.44,144.23 406.18,150.35 406.92,138.10 407.69,147.05 408.43,147.03 409.17,151.40 409.87,139.60 410.60,155.31 411.37,138.63 412.15,139.80 412.98,133.10 413.84,142.28 414.52,129.93 415.23,133.45 416.03,136.00 416.76,144.63 417.61,135.63 418.19,144.15 419.08,140.70 419.97,146.08 420.53,138.25 421.26,139.28 422.04,137.38 422.95,137.18 423.66,132.83 424.37,146.48 425.07,136.65 425.82,145.35 426.59,131.48 427.34,136.80 428.09,145.13 428.84,139.30 429.57,138.33 430.37,147.80 431.12,141.75 431.78,136.48 432.48,132.65 433.32,144.10 434.08,132.00 434.88,134.30 435.72,132.90 436.53,145.25 437.26,131.10 437.97,132.05 438.72,131.38 439.73,134.73 440.39,128.80 441.13,140.50 441.86,128.13 442.78,140.28 443.32,133.13 444.24,137.23 445.02,131.30 445.67,141.58 446.37,127.78 447.27,137.63 447.95,138.35 448.73,142.83 449.44,134.53 450.22,141.55 450.96,140.20 451.69,95.55 452.38,137.58 453.07,149.03 453.94,140.20 454.72,143.73 455.42,139.73 456.20,147.08 456.92,138.33 457.65,147.08 458.43,138.40 459.14,142.20 459.88,142.10 460.64,148.38 461.40,138.10 462.14,135.40 462.90,142.90 463.78,143.63 464.48,139.73 465.24,149.58 465.91,141.13 466.68,140.93 467.40,131.88 468.22,136.73 469.12,125.40 469.87,140.63 470.66,133.83 471.37,138.75 472.20,132.53 472.88,140.98 473.64,136.03 474.40,136.98 475.12,130.80 475.95,129.30 476.78,123.28 477.50,143.43 478.42,134.35 479.19,141.28 480.07,134.55 480.66,141.68 481.29,133.70 482.19,141.93 482.89,139.53 483.65,143.08 484.36,134.43 485.11,146.53 485.91,138.83 486.65,139.23 487.34,134.90 488.09,138.25 488.88,121.10 489.62,142.50 490.41,132.20 491.19,138.15 491.93,133.08 492.73,135.50 493.63,133.78 494.31,140.50 494.94,133.35 495.82,144.08 496.49,138.13 497.20,152.50 497.90,141.00 498.65,147.23 499.42,142.90 500.13,135.23 500.89,144.05 501.62,148.13 502.37,139.95 503.11,133.35 503.89,133.08 504.85,136.40 505.55,132.68 506.32,133.85 507.01,127.15 508.08,140.45 508.78,140.25 509.51,135.65 510.20,135.63 510.93,141.35 511.62,132.83 512.41,135.23 513.31,139.05 513.93,139.20 514.76,137.73 515.47,138.05 516.32,139.53 517.21,142.60 517.83,144.38 518.47,151.60 519.19,145.13 519.85,148.68 520.56,144.03 521.31,152.35 522.06,135.18 522.79,141.30 523.67,137.45 524.40,133.58 525.16,134.35 526.15,139.75 526.88,133.85 527.60,145.23 528.44,131.85 529.12,141.95 529.83,133.73 530.61,141.25 531.39,135.28 532.16,140.00 532.92,130.35 533.76,135.03 534.52,136.20 535.23,153.53 536.08,151.15 536.55,149.60 537.22,149.75 537.96,152.80 538.68,144.80 539.39,157.73 540.12,150.95 540.84,154.91 541.56,149.13 542.27,150.65 543.00,145.20 543.73,154.18 544.49,138.05 545.21,155.66 545.96,150.23 546.72,150.73 547.43,150.98 548.13,98.65 548.91,146.20 549.63,157.06 550.44,151.15 551.18,159.16 551.90,154.16 552.63,156.03 553.33,150.28 554.11,158.78 554.79,141.40 555.52,150.80 556.26,148.38 557.00,159.78 557.71,151.23 558.45,159.71 559.16,152.88 559.93,145.68 560.59,154.03 561.35,156.23 562.10,147.33 562.77,152.98 563.49,149.58 564.27,148.70 564.97,139.88 565.77,156.76 566.50,149.80 567.20,152.35 567.90,152.85 568.68,160.26 569.36,150.28 570.10,156.46 570.80,153.13 571.52,150.98 572.23,149.90 572.95,154.98 573.68,152.05 574.41,159.03 575.15,152.63 575.86,157.53 576.57,155.33 577.30,160.28 578.08,148.25 578.72,155.76 579.45,152.15 580.15,160.46 580.87,149.08 581.61,150.95 582.33,145.70 583.10,152.73 583.83,152.95 584.53,156.51 585.25,145.75 585.97,157.83 586.73,146.95 587.44,151.83 588.18,153.93 588.93,157.41 589.61,153.73 590.34,154.76 591.03,148.50 591.77,154.83 592.54,146.25 593.28,152.50 594.00,146.18 594.71,136.43 595.44,147.08 596.15,155.08 596.90,149.13 597.64,153.26 598.38,146.80 599.10,149.35 599.85,147.73 600.61,148.73 601.32,149.23 602.03,150.78 602.78,149.53 603.52,155.98 604.24,149.53 604.97,151.55 605.67,143.68 606.44,144.00 607.22,142.78 607.91,151.83 608.62,148.13 609.38,156.08 610.11,146.40 610.83,147.98 611.54,143.73 612.28,150.30 613.04,148.18 613.80,153.38 614.51,138.88 615.26,143.25 616.05,132.00 616.99,140.18 617.70,140.13 618.41,135.65 619.12,132.10 620.00,140.23 620.90,136.53 621.67,140.13 622.20,134.88 623.09,131.78 623.73,129.85 624.78,130.58 625.27,134.55 626.17,142.75 626.81,137.53 627.47,150.83 628.25,138.38 628.94,147.78 629.70,142.45 630.42,138.93 631.14,137.65 631.89,144.80 632.69,137.48 633.42,146.88 634.18,140.33 634.95,144.33 635.69,142.38 636.40,144.43 637.14,135.88 637.89,145.85 638.73,137.35 639.40,145.03 640.14,139.38 640.90,144.05 641.68,138.43 642.39,86.13 643.14,138.80 643.89,140.85 644.80,132.28 645.62,146.88 646.33,139.85 647.14,141.28 647.88,137.25 648.61,143.13 649.51,137.55 650.09,142.40 650.82,130.45 651.58,147.03 652.33,139.15 653.10,144.58 653.83,138.05 654.59,138.00 655.33,137.80 656.10,144.33 656.92,130.48 657.61,147.15 658.36,135.58 659.14,135.73 659.88,138.55 660.66,143.40 661.40,128.33 662.15,143.93 662.89,135.83 663.68,143.98 664.41,137.43 665.25,140.48 665.93,136.73 666.73,137.33 667.50,138.23 668.26,142.83 668.95,141.15 669.75,147.80 670.49,138.08 671.29,145.33 671.99,144.58 672.75,142.85 673.48,136.15 674.23,144.60 674.97,136.90 675.73,142.68 676.46,120.15 677.23,141.55 678.02,125.03 678.86,138.38 679.70,139.20 680.50,141.48 681.08,134.88 681.84,143.80 682.59,138.08 683.49,139.35 684.15,137.50 684.93,137.43 685.65,127.48 686.54,143.20 687.19,137.60 688.03,138.23 688.78,133.03 689.48,144.85 690.25,139.33 691.03,131.60 691.74,136.33 692.49,144.55 693.31,139.68 694.19,145.83 694.89,138.53 695.65,145.88 696.29,123.48 697.03,142.30 697.76,140.70 698.57,144.80 699.31,136.68 700.05,142.88 700.79,141.23 701.68,147.15 702.31,140.28 703.04,137.68 703.78,139.55 704.64,134.65 705.27,141.63 706.22,150.55 706.80,144.20 707.55,148.55 708.24,143.20 708.99,148.53 709.73,142.63 710.53,148.65 711.20,141.38 711.95,150.25 712.71,142.08 713.52,150.55 714.17,125.45 714.95,142.55 715.71,144.55 716.48,149.33 717.21,143.68 717.95,153.15 718.75,142.65 719.43,149.00 720.19,143.53 720.88,148.38 721.64,144.33 722.41,149.50 723.12,142.15 723.85,154.61 724.59,142.20 725.36,141.75 726.07,136.48 726.88,138.60 727.72,134.68 728.60,141.68 729.30,137.70 730.20,151.58 730.91,139.88 731.63,143.65 732.36,145.08 733.19,146.70 733.92,122.23 734.65,148.30 735.43,131.80 736.19,153.38 736.86,144.53 737.52,149.33 738.27,156.58 739.11,112.60 739.57,151.28 740.27,160.73 741.08,149.78 741.82,157.16 742.58,151.88 743.30,157.86 743.98,153.46 744.71,159.58 745.44,150.48 746.16,151.73 746.92,151.75 747.74,161.78 748.34,155.11 749.05,157.33 749.73,150.65 750.55,155.53 751.17,154.98 751.94,159.13 752.63,144.28 753.41,159.93 754.08,148.48 754.86,157.71 755.58,156.78 756.33,164.83 756.99,152.63 757.72,154.61 758.53,153.86 759.20,159.48 759.89,155.83 760.64,160.66 761.41,152.30 762.00,152.00 762.71,149.63 763.43,160.18 764.20,153.43 764.87,162.11 765.58,155.18 766.29,158.18 767.01,150.75 767.73,156.23 768.49,154.61 769.28,152.05 769.90,157.58 770.61,163.51 771.42,152.38 772.15,158.98 772.78,156.11 773.49,146.40 774.19,152.33 774.94,162.16 775.68,147.58 776.39,155.96 777.11,153.93 777.89,158.18 778.56,151.90 779.31,159.71 779.99,154.01 780.84,155.71 781.46,149.55 782.20,155.21 783.09,147.55 783.73,154.58 784.44,154.58 785.18,141.03 785.84,144.15 786.65,155.81 787.37,146.73 788.10,153.56 788.84,143.65 789.69,151.38 790.32,147.70 791.01,146.83 791.78,142.08 792.55,156.56 793.20,148.18 793.99,152.50 794.63,149.05 795.45,154.81 796.20,151.28 796.89,158.41 797.57,155.71 798.25,160.98 798.95,155.36 799.70,165.51 800.34,157.26 801.05,160.86 801.75,150.18 802.45,163.51 803.17,157.03 803.89,160.51 804.62,153.13 805.31,161.31 806.08,143.75 806.83,160.76 807.52,148.15 808.24,148.75 809.11,146.60 809.73,157.88 810.55,151.20 811.28,159.83 811.95,152.55 812.65,156.08 813.37,146.48 814.10,152.50 814.84,150.28 815.53,148.53 816.26,144.98 817.12,154.86 817.73,138.50 818.50,144.38 819.44,142.00 820.15,146.88 820.93,145.58 821.53,146.73 822.23,135.78 823.04,148.10 823.92,140.70 824.56,146.50 825.31,135.25 826.04,149.28 826.80,152.73 827.54,155.71 828.06,153.08 828.79,160.33 829.52,149.75 830.26,146.83 830.97,150.15 831.84,101.15 832.43,142.55 833.25,152.20 834.14,141.68 834.92,146.75 835.75,144.70 836.51,133.93 837.28,141.45 838.07,148.10 838.75,142.68 839.50,147.43 840.22,137.68 840.87,151.28 841.73,139.38 842.28,140.48 843.18,126.13 843.98,143.43 844.67,145.30 845.37,152.58 845.98,149.68 846.69,152.78 847.43,141.85 848.17,152.50 848.94,146.38 849.65,149.13 850.38,146.33 851.10,151.60 851.83,149.08 852.55,146.35 853.29,142.15 854.04,150.33 854.78,140.33 855.54,140.45 856.32,136.90 857.04,141.10 857.82,137.35 858.61,138.43 859.40,138.08 860.42,139.50 860.91,135.20 861.79,141.13 862.49,137.53 863.31,141.43 863.99,136.20 864.99,135.45 865.54,135.05 866.43,149.80 867.05,131.20 867.63,139.78 868.44,143.75 869.18,148.68 869.91,137.35 870.62,150.48 871.38,135.70 872.13,148.30 872.92,142.63 873.65,146.30 874.35,143.33 875.10,152.83 875.85,141.20 876.59,144.40 877.33,142.35 878.11,147.15 878.81,132.63 879.56,128.75 880.33,137.95 881.09,141.90 881.88,140.25 882.61,151.28 883.50,143.40 884.13,148.30 884.84,140.35 885.60,146.40 886.37,137.55 887.09,134.50 887.86,140.60 888.89,141.55 889.35,132.58 890.20,135.50 890.93,137.35 891.71,132.90 892.60,134.83 893.23,140.48 894.08,133.98 894.80,137.10 895.70,135.00 896.30,138.15 897.08,124.00 897.84,135.45 898.75,133.55 899.42,142.83 900.23,134.50 900.95,146.30 901.72,137.90 902.42,142.15 903.17,140.48 903.93,138.33 904.70,137.23 905.47,139.60 906.21,136.93 906.93,139.93 907.69,136.98 908.48,144.45 909.18,139.20 909.90,137.63 910.65,131.55 911.50,141.63 912.28,133.35 913.02,143.38 913.90,139.38 914.55,141.83 915.30,140.13 916.04,144.63 916.71,136.60 917.46,136.55 918.30,139.40 919.03,138.18 919.90,125.18 920.78,133.55 921.58,136.93 922.17,143.63 922.91,135.23 923.67,141.33 924.48,136.45 925.15,141.63 925.97,137.23 926.88,133.83 927.37,139.98 928.27,91.10 928.93,134.50 929.75,137.33 930.65,136.45 931.40,145.40 932.10,136.85 932.87,136.50 933.53,136.33 934.32,152.90 935.01,142.83 935.75,144.25 936.48,141.28 937.23,143.53 937.97,137.75 938.71,146.95 939.49,140.68 940.22,144.43 940.96,143.55 941.71,144.65 942.48,140.95 943.21,148.38 943.94,141.08 944.72,147.68 945.43,141.53 946.19,141.00 946.95,132.78 947.76,135.50 948.57,135.13 949.46,141.55 950.07,136.40 950.85,139.15 951.60,132.38 952.42,133.95 953.13,138.70 953.90,136.75 954.64,131.48 955.50,148.08 956.30,142.38 956.94,140.20 957.68,137.63 958.48,141.80 959.19,138.15 959.90,142.35 960.66,130.00 961.52,139.18 962.35,143.40 962.98,136.88 963.66,132.28 964.47,140.88 965.19,135.00 965.95,130.93 966.74,131.98 967.72,142.15 968.41,132.90 969.18,137.93 969.92,133.70 970.90,138.38 971.63,140.15 972.48,139.03 973.22,136.80 974.19,144.78 975.07,142.93 975.62,148.35 976.13,139.05 976.85,129.93 977.63,140.05 978.23,143.23 979.04,137.98 979.98,146.48 980.60,137.95 981.37,141.33 982.15,144.63 982.99,147.18 983.67,128.30 984.50,153.21 985.16,141.78 985.73,153.28 986.41,146.63 987.18,146.55 987.89,146.43 988.91,150.13 989.42,148.38 990.14,151.53 990.79,147.48 991.54,156.71 992.34,143.65 993.09,153.33 993.79,138.13 994.61,147.45 995.40,148.28 996.05,152.08 996.62,147.15 997.37,155.08 998.07,149.38 998.81,153.21 999.54,150.00 1000.24,144.05 1001.06,146.58 1001.75,153.58 1002.52,151.05 1003.24,158.98 1003.96,152.65 1004.64,147.85 1005.36,141.43 1006.12,149.55 1007.05,150.73 1007.84,151.23 1008.40,141.00 1009.15,153.66 1010.01,140.05 1010.65,133.53 1011.43,129.50 1012.30,133.83 1013.23,138.73 1013.81,144.08 1014.54,137.90 1015.40,144.25 1016.30,135.95 1016.86,142.50 1017.70,135.88 1018.47,133.10 1019.17,138.23 1019.94,134.85 1020.64,139.10 1021.43,147.73 1022.19,138.68 1022.95,140.93 1023.69,138.45 1024.43,88.93 1025.30,133.03 1025.99,143.23 1026.83,148.28 1027.59,147.98 1028.32,134.98 1029.06,150.23 1029.92,141.98 1030.57,141.10 1031.21,135.88 1032.10,139.10 1032.70,136.63 1033.63,144.85 1034.34,127.95 1035.10,141.93 1035.90,138.03 1036.76,142.10 1037.61,140.90 1038.27,146.83 1038.96,141.18 1039.57,140.83 1040.24,139.00 1041.11,149.68 1041.80,142.40 1042.55,150.83 1043.31,152.90 1044.01,154.91 1044.54,148.40 1045.26,156.61 1045.97,150.05 1046.76,152.93 1047.45,147.85 1048.18,148.73 1048.92,145.25 1049.63,154.18 1050.37,149.28 1051.16,154.33 1051.86,150.03 1052.61,150.48 1053.35,136.68 1054.08,151.50 1054.81,145.35 1055.53,149.00 1056.30,140.03 1057.00,154.71 1057.78,149.38 1058.45,152.13 1059.20,144.58 1059.95,145.23 1060.69,146.05 1061.38,148.30 1062.22,140.95 1062.86,152.08 1063.66,143.00 1064.34,145.75 1065.06,143.58 1065.80,145.23 1066.57,137.48 1067.30,146.63 1068.05,143.63 1068.82,146.20 1069.54,139.00 1070.32,145.53 1071.03,143.30 1071.82,134.05 1072.55,142.98 1073.27,149.73 1074.05,142.55 1074.78,150.98 1075.54,142.48 1076.34,144.98 1077.02,137.60 1077.74,148.83 1078.51,136.25 1079.28,141.90 1080.04,141.30 1080.73,148.23 1081.48,139.48 1082.22,144.78 1082.96,140.98 1083.72,139.48 1084.51,138.13 1085.34,144.73 1086.08,140.35 1086.79,148.83 1087.48,137.60 1088.23,144.55 1088.98,139.45 1089.71,138.35 1090.47,136.35 1091.31,144.53 1091.96,139.55 1092.75,147.00 1093.47,137.65 1094.24,138.18 1095.01,134.05 1095.80,136.08 1096.60,136.33 1097.34,137.85 1098.10,131.63 1098.96,142.58 1099.68,134.33 1100.38,143.58 1101.08,138.50 1101.83,141.70 1102.59,138.95 1103.34,139.20 1104.12,132.95 1104.88,142.80 1105.62,131.78 1106.47,138.35 1107.14,134.53 1107.95,140.10 1108.68,130.03 1109.42,135.85 1110.17,140.10 1110.98,140.18 1111.71,131.85 1112.53,138.00 1113.28,137.30 1114.02,140.43 1114.76,139.25 1115.58,144.73 1116.28,138.75 1117.01,146.90 1117.75,135.73 1118.60,142.40 1119.35,137.35 1120.11,94.30 1120.80,139.30 1121.55,141.45 1122.40,142.15 1123.15,144.90 1123.91,117.30 1124.65,142.73 1125.39,138.80 1126.23,142.40 1126.96,137.80 1127.75,143.35 1128.49,137.50 1129.25,147.10 1129.95,139.13 1130.70,143.40 1131.44,136.48 1132.23,140.43 1132.97,138.98 1133.72,146.98 1134.48,138.90 1135.25,147.23 1135.96,137.53 1136.75,142.05 1137.49,138.95 1138.26,146.53 1139.01,139.50 1139.73,143.55 1140.45,131.33 1141.20,144.88 1142.09,138.80 1142.76,150.18 1143.49,124.10 1144.25,139.65 1144.98,142.55 1145.76,143.80 1146.52,140.73 1147.37,150.55 1148.06,138.70 1148.77,144.23 1149.49,141.75 1150.27,145.70 1151.04,139.00 1151.74,145.85 1152.55,140.65 1153.29,148.28 1154.02,139.50 1154.76,149.70 1155.48,142.28 1156.23,140.58 1156.99,142.00 1157.72,149.95 1158.50,141.85 1159.25,151.05 1160.01,143.05 1160.72,148.63 1161.44,124.45 1162.18,150.83 1162.95,141.15 1163.71,149.28 1164.47,143.35 1165.21,148.58 1165.94,139.95 1166.69,149.30 1167.44,134.83 1168.15,135.58 1169.14,143.40 1169.66,148.25 1170.44,144.98 1171.18,144.58 1171.94,142.20 1172.70,154.83 1173.42,142.78 1174.16,142.85 1174.89,143.75 1175.66,150.78 1176.40,146.18 1177.09,158.23 1177.80,148.48" fill="none" stroke="#ea580c" stroke-width=".8" opacity=".65"/><text x="225" y="525" fill="#ea580c">B1</text>
<polyline points="65.72,147.88 66.47,143.15 67.24,147.25 67.99,141.90 68.74,148.25 69.46,142.65 70.21,148.80 70.96,145.05 71.69,94.33 72.44,143.60 73.18,153.00 74.05,144.78 74.77,146.40 75.48,140.38 76.23,144.93 76.99,142.88 77.75,147.30 78.49,142.40 79.23,146.98 80.02,145.78 80.71,150.75 81.44,141.85 82.19,149.60 82.96,143.30 83.67,143.70 84.40,146.73 85.12,145.85 85.93,137.60 86.64,151.85 87.39,134.98 88.14,148.38 89.03,144.15 89.66,151.23 90.39,144.25 91.08,150.08 91.84,140.95 92.58,152.10 93.29,148.90 94.06,150.28 94.79,134.05 95.52,145.38 96.32,145.15 97.05,151.33 97.85,149.65 98.60,150.75 99.20,142.63 100.06,144.50 100.86,145.65 101.55,151.10 102.19,150.53 103.02,152.55 103.67,151.40 104.54,161.28 105.18,147.78 105.87,151.50 106.70,144.15 107.45,151.40 108.11,138.98 108.77,157.46 109.65,152.25 110.26,164.16 111.04,149.95 111.72,145.28 112.40,145.65 113.20,152.55 114.01,145.58 114.80,158.43 115.64,152.03 116.20,149.98 116.87,155.83 117.80,148.38 118.27,140.33 119.24,135.10 119.98,151.08 120.63,150.23 121.31,146.43 122.05,159.91 122.74,150.20 123.42,159.56 124.22,149.85 124.89,155.36 125.60,146.80 126.34,152.80 127.08,145.60 127.82,159.18 128.60,150.85 129.28,152.65 130.01,149.65 130.74,149.20 131.42,140.85 132.23,160.83 132.90,153.73 133.56,159.98 134.28,154.98 135.04,155.23 135.75,144.55 136.50,148.55 137.22,153.68 138.06,154.06 138.62,147.85 139.37,156.68 140.10,147.83 140.96,152.95 141.54,149.70 142.31,144.80 143.00,152.83 143.89,139.70 144.49,146.93 145.29,159.46 146.01,153.08 146.74,148.68 147.41,141.60 148.22,154.78 148.98,155.18 149.64,147.03 150.33,141.70 151.13,157.21 151.97,147.78 152.61,148.10 153.35,142.30 154.07,139.10 154.95,146.25 155.67,154.03 156.32,139.25 157.02,142.88 157.84,139.93 158.68,151.45 159.50,151.50 159.97,154.13 160.72,136.48 161.42,146.53 162.20,148.13 163.03,152.43 163.66,144.60 164.39,149.43 165.23,146.33 166.03,102.13 166.59,148.23 167.33,154.78 168.20,150.53 169.01,155.33 169.59,146.75 170.34,151.73 171.06,148.90 171.87,153.51 172.56,129.25 173.27,138.75 174.56,142.00 175.06,153.86 175.54,147.50 176.26,146.93 176.99,145.18 177.70,143.85 178.47,139.10 179.18,149.80 179.92,143.63 180.68,147.78 181.41,143.58 182.17,144.23 182.91,139.68 183.64,148.15 184.37,137.15 185.13,144.43 185.86,144.55 186.63,150.38 187.36,136.68 188.19,148.50 188.85,136.95 189.62,133.70 190.35,139.20 191.10,142.70 191.86,137.45 192.63,146.40 193.38,140.50 194.14,144.03 194.87,140.40 195.63,145.93 196.38,141.78 197.13,145.80 197.87,141.08 198.62,147.85 199.35,135.63 200.10,142.75 200.90,140.73 201.62,142.05 202.38,140.90 203.14,146.40 203.91,132.50 204.62,146.05 205.38,139.90 206.14,143.45 206.90,136.68 207.62,145.08 208.36,143.83 209.12,146.45 209.86,137.70 210.64,148.98 211.34,137.70 212.12,141.83 212.91,137.53 213.61,125.50 214.47,130.73 215.16,146.10 216.05,137.60 216.70,141.90 217.45,137.40 218.24,142.98 218.99,137.95 219.75,142.60 220.48,137.33 221.25,144.90 222.05,137.15 222.72,148.35 223.47,136.98 224.23,136.50 225.01,140.78 225.80,138.88 226.53,135.35 227.25,142.90 228.02,139.73 228.82,143.63 229.50,119.05 230.35,135.30 231.20,136.95 231.86,145.10 232.56,139.50 233.30,145.55 234.06,139.70 234.80,151.23 235.55,139.40 236.31,146.45 237.06,138.83 237.80,142.75 238.60,140.33 239.30,148.58 240.05,139.78 240.83,148.55 241.54,137.80 242.29,146.45 243.03,142.48 243.78,146.08 244.55,143.45 245.25,148.25 245.98,139.88 246.74,149.15 247.50,139.78 248.27,145.55 248.97,126.38 249.75,142.68 250.50,141.33 251.28,148.18 252.01,140.73 252.78,149.33 253.53,139.58 254.25,147.70 254.99,141.53 255.73,143.18 256.45,149.93 257.25,151.35 257.98,138.50 258.70,153.96 259.46,140.83 260.19,145.45 260.92,142.15 261.77,97.08 262.42,139.53 263.15,146.50 264.04,142.20 264.80,147.80 265.53,141.83 266.30,143.95 267.00,128.45 267.85,158.08 268.46,148.15 269.27,149.80 270.04,145.50 270.75,152.58 271.45,138.10 272.30,148.78 272.96,145.18 273.66,140.85 274.38,146.03 275.12,146.90 275.92,140.28 276.68,150.73 277.37,144.13 278.15,156.56 278.94,152.05 279.61,156.46 280.35,143.63 281.03,154.46 281.76,147.38 282.48,153.31 283.21,147.05 283.98,151.53 284.68,148.43 285.51,147.60 286.17,132.75 286.91,157.28 287.71,150.60 288.40,157.81 289.09,153.53 289.82,154.66 290.52,149.88 291.28,156.11 291.99,149.33 292.70,154.43 293.43,156.23 294.16,157.73 294.89,151.78 295.64,159.26 296.30,154.23 297.05,154.16 297.76,156.36 298.47,163.21 299.18,153.38 299.90,158.68 300.60,153.53 301.35,160.63 302.05,149.58 302.77,156.98 303.47,156.73 304.21,159.98 304.92,133.18 305.71,157.11 306.43,153.88 307.26,159.68 307.96,153.46 308.74,141.88 309.33,151.68 310.10,153.26 310.87,151.98 311.61,159.68 312.40,144.55 313.05,160.78 313.79,152.20 314.46,155.36 315.18,152.65 316.02,158.36 316.63,149.38 317.38,157.11 318.18,155.26 318.81,158.98 319.50,155.38 320.20,157.23 320.92,149.95 321.66,155.18 322.40,151.03 323.14,160.73 323.90,146.95 324.55,156.56 325.23,149.05 325.97,150.73 326.79,151.00 327.48,162.38 328.21,153.53 328.83,164.23 329.54,157.98 330.24,160.68 330.92,154.93 331.66,153.58 332.37,159.91 333.04,162.86 333.82,158.36 334.52,163.33 335.22,154.31 335.96,159.36 336.64,158.66 337.38,163.93 338.05,159.78 338.80,161.76 339.49,151.98 340.18,162.33 340.89,158.78 341.66,162.56 342.32,156.28 343.04,155.48 343.73,148.08 344.52,161.46 345.24,157.03 345.91,164.33 346.62,153.21 347.43,160.26 348.07,158.91 348.78,166.01 349.42,158.68 350.13,169.76 350.87,160.46 351.64,163.81 352.26,157.41 352.96,155.88 353.67,153.68 354.45,113.35 355.18,157.26 355.86,147.68 356.62,156.31 357.63,163.28 358.09,148.18 358.84,152.73 359.54,150.08 360.38,164.31 361.03,153.98 361.70,150.88 362.41,154.28 363.21,156.61 363.83,146.58 364.64,155.23 365.37,151.98 366.25,154.61 366.81,156.08 367.56,153.03 368.31,141.53 369.17,155.26 369.86,154.21 370.53,156.28 371.17,150.33 371.94,152.95 372.61,147.00 373.63,142.45 374.21,145.73 375.04,160.96 375.67,152.40 376.45,158.31 377.05,149.85 377.75,153.96 378.43,153.48 379.11,152.70 379.83,150.03 380.67,164.98 381.30,153.81 382.02,148.38 382.77,153.46 383.54,159.43 384.17,145.58 385.00,157.36 385.66,152.85 386.36,159.61 387.17,149.55 387.78,157.41 388.51,143.40 389.21,145.78 389.98,140.00 390.90,155.01 391.64,152.88 392.23,161.03 392.89,155.46 393.63,156.43 394.28,150.60 395.02,153.91 395.78,146.73 396.50,153.51 397.21,151.25 397.94,156.18 398.67,145.70 399.39,147.90 400.11,144.68 400.88,132.08 401.57,140.33 402.32,145.38 403.10,141.65 403.93,146.78 404.61,134.93 405.40,146.48 406.11,142.30 406.88,143.88 407.58,139.93 408.36,146.15 409.12,135.85 409.85,146.65 410.56,139.65 411.33,146.83 412.06,143.05 412.80,140.60 413.57,135.50 414.29,144.65 415.14,142.60 415.86,149.15 416.59,138.68 417.31,147.98 418.05,140.18 418.78,144.08 419.51,143.05 420.29,146.33 421.10,135.08 421.81,144.10 422.51,136.15 423.28,146.48 424.02,136.13 424.81,141.73 425.57,139.60 426.39,147.48 427.11,140.80 427.82,149.70 428.53,138.25 429.39,142.58 430.04,137.88 430.80,146.50 431.55,141.08 432.39,146.30 433.02,136.80 433.80,145.30 434.50,138.00 435.38,145.15 436.06,138.78 436.79,140.88 437.57,140.13 438.35,144.45 439.03,140.28 439.83,147.90 440.55,137.68 441.36,144.23 442.05,136.05 442.82,142.98 443.55,132.95 444.39,142.13 445.04,134.18 445.80,145.18 446.58,135.30 447.35,138.03 448.08,139.98 448.87,86.95 449.61,132.83 450.33,146.40 451.25,138.73 452.02,145.00 452.77,139.05 453.50,143.30 454.25,139.53 455.03,145.20 455.71,136.70 456.51,143.60 457.24,138.35 457.96,143.43 458.70,136.93 459.50,143.63 460.36,132.33 461.03,140.98 461.76,135.98 462.51,141.50 463.28,138.93 464.00,138.95 464.78,136.18 465.65,144.53 466.34,134.78 467.06,146.80 467.85,140.63 468.57,145.80 469.34,140.20 470.09,143.35 470.82,138.90 471.58,146.73 472.30,140.83 473.04,138.58 473.83,140.63 474.56,147.43 475.34,139.00 476.07,150.88 476.88,143.38 477.59,144.88 478.31,140.83 479.05,146.15 479.81,137.13 480.54,138.68 481.28,139.33 482.06,146.90 482.82,140.58 483.55,143.90 484.30,133.13 485.06,139.35 485.82,136.13 486.57,139.88 487.36,139.63 488.11,148.08 488.92,131.90 489.59,144.10 490.32,136.00 491.11,140.40 491.91,136.40 492.60,141.38 493.34,131.83 494.13,149.35 494.89,138.35 495.63,140.93 496.37,139.80 497.12,127.08 497.87,126.45 498.67,135.05 499.79,126.65 500.46,137.95 501.24,132.58 502.03,133.98 502.75,134.90 503.61,132.30 504.31,136.63 505.11,143.73 505.86,138.60 506.56,146.45 507.31,137.78 507.93,143.65 508.80,132.80 509.55,133.05 510.26,148.85 511.25,155.06 511.66,147.13 512.39,148.78 513.12,144.70 513.82,149.23 514.56,144.33 515.30,147.73 516.08,144.15 516.84,148.60 517.52,146.65 518.27,152.35 519.01,143.58 519.74,150.68 520.49,144.80 521.27,143.73 521.95,146.30 522.67,152.38 523.41,138.70 524.22,154.06 524.96,144.45 525.69,140.08 526.36,149.03 527.16,149.60 527.85,142.68 528.59,150.30 529.35,150.33 530.10,156.33 530.79,147.63 531.50,155.46 532.26,150.55 533.03,148.20 533.72,149.48 534.51,154.43 535.23,140.23 535.91,156.56 536.64,148.30 537.41,151.70 538.14,152.83 538.86,157.91 539.60,147.83 540.30,153.46 540.98,156.98 541.73,161.06 542.47,148.65 543.22,157.96 543.91,153.53 544.63,105.73 545.33,157.23 546.07,159.11 546.89,151.08 547.59,160.26 548.31,152.90 549.06,156.03 549.76,152.85 550.49,156.16 551.21,152.28 551.92,157.93 552.63,152.93 553.32,155.08 554.09,152.73 554.85,155.28 555.52,154.01 556.24,154.48 556.99,148.50 557.70,153.86 558.45,150.60 559.13,155.43 559.88,153.05 560.62,156.13 561.30,143.85 562.03,161.08 562.74,153.31 563.51,155.83 564.21,152.48 564.92,162.88 565.66,153.48 566.36,158.26 567.04,153.86 567.81,153.73 568.51,149.50 569.24,155.71 569.96,154.86 570.68,160.03 571.47,151.08 572.10,158.88 572.85,152.65 573.55,150.55 574.29,154.71 575.02,156.98 575.73,150.20 576.44,162.98 577.18,153.71 577.92,159.21 578.61,154.78 579.29,154.36 580.00,155.68 580.72,157.43 581.46,153.03 582.18,159.18 582.91,143.33 583.68,152.23 584.37,155.06 585.07,158.88 585.82,151.43 586.54,155.28 587.24,154.28 587.97,158.16 588.68,153.91 589.46,157.26 590.12,153.48 590.87,142.85 591.56,152.15 592.28,144.63 593.03,152.10 593.80,159.86 594.57,147.68 595.29,153.61 596.00,148.60 596.73,148.25 597.45,148.30 598.33,153.73 598.87,151.88 599.61,158.96 600.31,142.68 601.05,157.56 601.84,151.98 602.51,149.68 603.21,146.53 603.96,154.83 604.69,149.83 605.42,156.73 606.13,150.75 606.86,149.50 607.59,149.58 608.33,153.13 609.03,146.43 609.80,153.51 610.58,147.55 611.22,154.28 611.95,148.78 612.71,152.88 613.44,146.58 614.16,145.88 614.90,144.15 615.64,154.01 616.36,146.78 617.09,153.48 617.81,146.10 618.53,147.88 619.30,143.55 620.04,148.75 620.76,143.93 621.53,146.35 622.24,146.43 622.99,150.40 623.72,140.93 624.47,149.80 625.28,144.43 625.96,137.63 626.71,141.15 627.50,148.08 628.22,142.25 628.93,151.68 629.68,141.75 630.43,146.45 631.16,142.50 631.89,141.15 632.64,141.68 633.42,148.68 634.16,140.80 634.87,147.05 635.62,144.10 636.38,146.98 637.12,140.90 637.87,95.48 638.61,142.75 639.36,147.08 640.21,143.63 640.94,151.05 641.69,137.13 642.51,143.10 643.21,140.65 644.01,144.03 644.68,142.43 645.52,146.08 646.16,133.18 646.92,151.18 647.67,142.53 648.44,145.65 649.16,138.80 649.92,142.10 650.67,141.20 651.42,144.13 652.14,140.30 652.90,148.25 653.64,134.25 654.40,142.63 655.14,136.25 655.92,141.48 656.72,121.58 657.44,126.88 658.41,122.35 659.25,141.43 659.97,131.25 660.85,130.90 661.52,128.23 662.35,132.58 663.28,133.65 663.83,139.75 664.56,129.50 665.41,138.10 666.31,130.08 667.00,137.08 667.71,125.43 668.51,134.33 669.46,139.25 670.01,134.70 670.59,138.10 671.64,153.58 672.23,127.30 672.88,143.08 673.54,140.63 674.36,138.98 675.10,136.18 675.86,142.75 676.61,138.65 677.36,144.78 678.18,139.98 678.89,143.43 679.72,136.53 680.38,142.60 681.13,139.08 682.02,143.45 682.69,143.75 683.34,147.90 684.07,139.50 684.87,149.45 685.68,141.50 686.35,136.08 687.08,141.38 687.91,148.98 688.58,142.93 689.34,151.30 690.08,139.93 690.83,146.88 691.57,125.85 692.32,149.73 693.06,147.05 693.91,152.95 694.56,141.80 695.26,147.43 696.03,145.00 696.85,147.43 697.50,141.75 698.26,144.18 699.02,144.93 699.82,146.65 700.50,144.75 701.23,151.25 701.96,138.10 702.76,144.65 703.47,143.18 704.25,141.98 704.93,138.50 705.76,152.85 706.47,143.23 707.18,148.73 707.92,146.15 708.77,149.50 709.40,126.40 710.14,147.35 710.90,148.38 711.72,151.70 712.39,147.10 713.12,152.33 713.86,143.93 714.63,154.13 715.33,145.38 716.07,148.03 716.80,149.05 717.58,141.88 718.27,126.43 718.97,139.08 719.75,128.08 720.58,131.48 721.28,133.05 722.09,131.35 722.85,131.35 723.59,136.00 724.35,136.65 725.15,141.98 725.93,128.50 726.71,139.93 727.45,128.58 728.22,134.23 729.01,120.63 729.75,137.98 730.56,128.93 731.39,143.90 732.57,138.33 733.11,138.55 733.70,127.70 734.46,88.55 735.39,129.90 736.14,144.45 737.11,128.60 737.62,144.10 738.66,132.68 739.34,139.23 740.21,141.65 740.77,137.10 741.43,132.40 742.40,143.68 743.16,151.85 743.91,160.78 744.40,151.63 745.09,155.56 745.79,150.03 746.54,152.65 747.27,148.25 748.00,156.38 748.71,141.93 749.48,156.21 750.15,153.23 750.91,158.46 751.59,150.23 752.32,161.18 753.06,154.61 753.79,160.26 754.51,157.41 755.29,164.03 755.92,158.23 756.65,163.21 757.34,156.38 758.06,159.63 758.77,157.21 759.49,158.61 760.19,157.73 760.90,164.06 761.62,154.23 762.42,162.31 763.06,159.33 763.74,154.08 764.41,158.61 765.21,160.71 765.88,160.71 766.62,165.18 767.28,159.11 768.01,163.56 768.72,161.33 769.41,161.76 770.11,155.06 770.82,161.76 771.51,156.88 772.33,166.66 772.92,158.63 773.65,162.03 774.36,155.58 775.06,166.11 775.76,156.36 776.48,157.28 777.25,155.76 777.97,163.21 778.56,156.96 779.31,161.28 780.01,162.46 780.73,141.40 781.41,154.21 782.15,162.61 782.90,157.68 783.62,164.06 784.29,160.86 785.03,163.86 785.75,157.98 786.44,165.58 787.14,159.16 787.88,164.83 788.63,160.51 789.23,160.63 789.99,156.43 790.68,164.38 791.39,158.31 792.08,159.96 792.80,157.83 793.51,166.31 794.21,158.26 794.92,165.71 795.64,158.73 796.34,162.53 797.02,149.15 797.75,165.68 798.44,160.43 799.17,163.73 799.87,157.06 800.57,164.61 801.27,158.66 801.99,161.53 802.69,157.16 803.42,157.01 804.11,158.01 804.83,162.26 805.53,160.43 806.24,165.06 806.91,156.01 807.67,161.41 808.37,157.66 809.07,163.41 809.77,159.16 810.48,158.28 811.19,157.28 811.92,165.78 812.61,148.35 813.34,155.63 814.35,153.96 814.82,154.33 815.60,150.03 816.27,151.33 817.07,139.30 817.83,153.66 818.58,154.16 819.24,162.96 819.92,158.58 820.57,152.88 821.28,152.18 822.08,158.01 822.77,154.43 823.44,164.06 824.15,154.78 824.88,152.93 825.58,153.23 826.27,108.33 827.02,151.00 827.72,162.66 828.58,154.46 829.30,160.33 830.00,154.38 830.72,163.96 831.47,150.15 832.16,142.60 832.86,141.50 833.58,146.60 834.43,139.30 835.10,149.43 835.81,139.85 836.59,142.15 837.32,142.98 838.05,138.80 838.83,128.40 839.56,144.30 840.43,136.20 841.11,141.98 841.85,135.88 842.61,149.60 843.35,139.38 844.12,140.00 844.86,136.65 845.63,139.95 846.43,133.98 847.07,141.95 847.87,133.93 848.67,141.65 849.39,138.00 850.19,134.28 850.93,136.15 851.71,141.38 852.45,135.03 853.20,144.25 853.98,134.60 854.70,145.43 855.48,138.95 856.21,142.83 856.96,142.10 857.72,145.60 858.50,133.43 859.23,150.13 860.18,136.83 860.85,139.08 861.58,136.68 862.53,131.15 863.29,130.40 864.03,145.60 864.87,137.00 865.38,142.93 866.13,136.00 866.90,146.33 867.63,140.90 868.43,149.63 869.18,144.23 870.02,149.35 870.65,142.25 871.39,148.73 872.12,141.60 872.95,143.38 873.61,142.83 874.36,133.93 875.15,143.48 875.92,147.33 876.62,142.65 877.37,149.65 878.18,135.55 878.97,142.20 879.71,136.43 880.45,145.90 881.26,140.85 881.97,150.68 882.77,144.65 883.47,150.78 884.24,142.55 884.84,147.03 885.52,144.43 886.16,142.40 886.91,143.60 887.64,147.15 888.40,142.08 889.12,150.35 889.87,141.20 890.62,146.10 891.39,140.20 892.14,148.20 892.89,141.73 893.64,145.78 894.36,144.38 895.14,151.93 895.85,139.68 896.65,147.13 897.36,142.65 898.10,142.85 898.83,140.48 899.66,140.68 900.34,135.38 901.03,147.43 901.92,143.28 902.62,147.23 903.29,141.30 904.05,150.35 904.82,139.60 905.61,144.95 906.28,142.78 907.04,151.30 907.85,141.73 908.57,147.95 909.26,141.25 910.00,141.18 910.76,142.93 911.58,147.33 912.26,144.25 912.98,149.63 913.73,140.95 914.52,149.45 915.22,142.10 915.96,150.03 916.68,142.83 917.50,149.93 918.18,143.03 918.92,151.83 919.66,141.60 920.44,147.73 921.12,142.05 921.89,99.43 922.66,140.83 923.38,145.95 924.20,140.65 924.97,146.23 925.68,143.25 926.51,146.40 927.18,137.15 927.90,147.83 928.68,141.43 929.42,143.83 930.15,141.73 930.91,146.13 931.66,135.88 932.43,146.90 933.17,141.40 933.92,140.13 934.67,139.43 935.39,145.15 936.13,145.70 936.90,151.25 937.64,138.45 938.42,146.00 939.20,139.63 939.91,142.58 940.62,131.40 941.43,144.28 942.28,135.73 942.98,144.33 943.66,142.15 944.52,142.00 945.26,138.63 945.96,137.88 946.70,143.60 947.49,146.18 948.22,143.65 948.99,150.40 949.70,144.33 950.43,147.28 951.18,142.48 951.87,147.18 952.61,139.78 953.41,147.23 954.17,145.05 954.88,143.08 955.58,143.83 956.38,148.80 957.09,140.00 957.83,145.88 958.64,144.63 959.32,148.98 960.09,144.40 960.83,149.00 961.54,148.20 962.31,152.90 963.00,143.95 963.73,149.00 964.50,152.75 965.26,155.93 965.98,144.60 966.72,155.03 967.47,147.30 968.13,152.88 968.86,147.55 969.59,136.58 970.34,150.15 971.05,150.40 971.81,150.40 972.56,158.16 973.27,151.33 974.00,153.36 974.71,151.68 975.45,155.78 976.18,149.15 976.91,154.98 977.62,145.45 978.37,158.31 979.07,149.48 979.81,155.46 980.52,148.38 981.24,145.93 981.99,143.55 982.71,148.50 983.45,144.75 984.19,149.48 984.90,137.13 985.69,149.73 986.40,144.38 987.16,147.35 987.91,143.80 988.65,149.38 989.38,145.35 990.14,149.78 990.86,142.13 991.62,149.15 992.35,145.90 993.08,143.13 993.81,142.33 994.60,146.65 995.33,142.68 996.05,152.90 996.79,146.45 997.54,149.13 998.27,143.23 999.00,148.25 999.73,144.33 1000.51,142.05 1001.22,145.93 1002.04,154.96 1002.74,140.50 1003.43,150.93 1004.18,145.20 1004.93,150.63 1005.67,150.65 1006.40,157.56 1007.13,152.50 1007.89,153.13 1008.57,149.28 1009.30,155.03 1010.03,152.68 1010.81,156.46 1011.47,147.10 1012.19,154.83 1012.87,145.98 1013.64,156.28 1014.40,150.73 1015.10,150.78 1015.83,144.15 1016.56,100.45 1017.28,149.05 1018.00,152.35 1018.87,153.08 1019.61,159.51 1020.40,145.23 1021.06,157.76 1021.77,146.23 1022.52,155.21 1023.26,150.38 1023.96,156.36 1024.69,151.25 1025.42,158.03 1026.15,146.38 1026.87,156.31 1027.56,156.91 1028.32,153.76 1029.02,144.95 1029.72,154.43 1030.49,149.88 1031.23,154.96 1031.95,148.75 1032.68,153.86 1033.38,147.63 1034.12,154.06 1034.84,149.90 1035.57,155.86 1036.31,150.90 1037.04,157.31 1037.75,150.48 1038.53,153.63 1039.19,150.08 1039.91,150.03 1040.64,147.38 1041.39,152.90 1042.14,148.88 1042.84,154.36 1043.57,140.30 1044.31,152.90 1045.04,145.58 1045.78,149.15 1046.52,142.50 1047.26,148.20 1047.94,143.13 1048.74,157.01 1049.48,145.55 1050.23,147.05 1050.92,138.88 1051.66,133.10 1052.49,130.98 1053.41,138.53 1054.29,132.08 1055.03,128.43 1055.73,130.73 1056.63,137.75 1057.34,132.43 1058.12,135.10 1058.92,133.05 1059.70,137.50 1060.38,126.20 1061.19,129.73 1061.93,130.80 1062.72,144.28 1063.36,125.75 1063.95,130.78 1064.74,134.48 1065.48,147.15 1066.34,136.63 1067.03,135.93 1067.83,127.95 1068.79,138.05 1069.63,137.28 1070.32,142.73 1070.95,132.20 1071.67,141.38 1072.40,140.53 1073.20,144.18 1073.95,134.63 1074.70,144.08 1075.43,129.40 1076.22,130.55 1076.97,138.23 1077.73,139.38 1078.49,132.85 1079.35,145.15 1080.08,138.05 1080.69,144.75 1081.43,140.73 1082.17,143.98 1082.98,138.88 1083.74,142.98 1084.44,139.98 1085.21,146.60 1085.95,135.63 1086.72,143.25 1087.46,137.10 1088.19,131.90 1088.95,134.80 1089.76,141.28 1090.51,129.78 1091.27,144.43 1092.05,141.98 1092.79,130.05 1093.53,122.88 1094.55,130.93 1095.44,125.55 1096.22,132.23 1096.96,123.33 1097.85,140.65 1098.44,130.08 1099.22,122.78 1099.96,132.15 1100.81,134.80 1101.54,120.40 1102.28,133.15 1103.10,131.55 1103.91,138.45 1104.67,130.80 1105.41,137.20 1106.13,135.78 1106.71,143.38 1107.51,132.58 1108.27,143.00 1108.95,135.88 1109.72,143.48 1110.51,138.40 1111.26,143.28 1111.96,127.03 1112.76,82.25 1113.69,132.48 1114.75,137.65 1115.49,126.73 1116.19,136.60 1116.97,113.95 1117.77,136.05 1118.49,136.20 1119.34,134.53 1120.09,130.23 1120.83,124.08 1121.46,120.45 1122.54,133.48 1123.30,130.03 1124.11,139.10 1124.76,126.73 1125.44,139.35 1126.13,142.03 1126.82,145.18 1127.64,133.78 1128.31,146.70 1129.08,133.55 1129.90,139.93 1130.53,140.15 1131.32,142.88 1132.05,134.60 1132.81,144.75 1133.64,138.23 1134.36,144.40 1135.11,138.50 1135.84,142.50 1136.60,121.78 1137.36,142.75 1138.09,141.30 1138.90,146.13 1139.66,140.65 1140.38,147.98 1141.19,142.18 1141.86,148.33 1142.62,139.90 1143.37,147.90 1144.11,139.23 1144.86,140.68 1145.64,140.48 1146.54,150.80 1147.10,138.53 1147.86,148.03 1148.57,141.70 1149.35,137.93 1150.06,143.60 1150.85,146.13 1151.57,131.15 1152.35,142.60 1153.17,131.30 1154.09,141.78 1154.79,118.28 1155.55,142.43 1156.23,141.78 1157.20,139.43 1157.82,134.53 1158.68,141.68 1159.38,131.28 1160.15,143.43 1161.05,133.48 1161.74,123.08 1162.48,133.73 1163.34,137.20 1164.06,139.45 1164.85,149.55 1165.41,145.33 1166.05,150.78 1166.82,143.73 1167.52,149.75 1168.24,146.70 1169.00,154.13 1169.77,148.63 1170.50,155.63 1171.22,143.23 1171.96,152.78 1172.71,147.40 1173.41,148.10 1174.17,134.63 1174.90,155.46 1175.63,146.08 1176.38,154.43 1177.10,148.38" fill="none" stroke="#b91c1c" stroke-width=".8" opacity=".65"/><text x="385" y="525" fill="#b91c1c">B2</text>
<polyline points="65.73,147.55 66.45,144.38 67.20,147.03 67.94,139.95 68.66,148.70 69.41,141.95 70.16,147.73 70.92,144.83 71.67,93.83 72.39,142.85 73.14,150.55 74.00,144.10 74.75,146.80 75.49,145.00 76.27,148.23 76.96,140.58 77.70,150.23 78.43,142.68 79.20,146.40 79.90,146.93 80.63,151.28 81.37,143.48 82.14,151.80 82.86,146.20 83.62,144.83 84.34,147.78 85.21,148.40 85.83,142.15 86.61,153.46 87.32,141.55 88.07,143.08 88.81,148.03 89.70,151.80 90.30,145.88 91.00,151.80 91.77,142.93 92.46,154.93 93.16,149.78 93.96,153.28 94.75,147.73 95.41,150.55 96.12,150.85 96.93,155.86 97.62,150.05 98.31,155.18 99.01,148.60 99.75,153.61 100.47,148.95 101.21,156.88 101.93,146.30 102.67,152.90 103.42,149.55 104.15,157.31 104.86,148.13 105.59,147.83 106.33,146.95 107.20,145.75 107.79,148.53 108.53,153.56 109.30,147.95 110.02,160.63 110.74,149.98 111.44,153.13 112.15,151.15 112.90,156.31 113.60,150.55 114.33,155.76 115.04,151.93 115.86,159.18 116.51,147.45 117.24,152.03 118.02,146.63 118.69,138.50 119.38,150.93 120.14,158.43 120.90,148.30 121.64,154.96 122.35,148.18 123.07,151.90 123.79,144.40 124.53,155.01 125.26,147.03 126.01,151.90 126.72,150.20 127.46,157.48 128.19,148.83 128.93,155.41 129.64,147.65 130.36,140.35 131.08,148.40 131.82,154.63 132.58,147.75 133.31,153.21 134.02,150.13 134.80,154.31 135.50,150.45 136.19,154.48 136.93,146.63 137.68,156.61 138.41,149.40 139.13,158.81 139.84,144.35 140.61,151.10 141.30,147.20 142.05,146.65 142.77,147.65 143.50,156.38 144.24,149.35 144.96,152.10 145.69,150.08 146.40,143.93 147.17,137.88 148.03,156.11 148.75,146.28 149.41,151.03 150.11,146.45 150.84,155.28 151.54,146.90 152.31,154.41 153.03,147.88 153.77,132.75 154.49,150.55 155.38,151.75 155.99,144.68 156.70,153.78 157.44,147.45 158.22,150.75 158.89,147.60 159.66,151.75 160.38,140.93 161.13,149.30 161.86,147.80 162.59,149.88 163.37,148.33 164.16,149.65 164.80,144.48 165.56,98.45 166.33,139.48 167.02,144.05 167.86,148.00 168.75,148.63 169.35,141.63 170.10,149.53 170.80,144.18 171.58,142.75 172.29,140.25 173.07,146.48 173.84,141.73 174.59,147.98 175.29,135.40 176.05,142.68 176.87,143.10 177.52,139.93 178.29,134.20 179.01,146.80 179.80,139.90 180.61,144.43 181.29,143.58 182.05,142.50 182.80,135.95 183.56,139.60 184.31,133.35 185.07,142.05 185.81,142.68 186.66,145.03 187.33,137.48 188.10,145.73 188.82,138.08 189.66,138.23 190.34,139.35 191.08,143.18 191.84,138.53 192.68,148.15 193.37,140.83 194.11,144.15 194.83,133.83 195.69,144.48 196.57,134.13 197.10,144.03 197.93,136.88 198.66,146.93 199.37,128.95 200.15,142.53 200.87,137.05 201.66,138.13 202.38,139.03 203.13,142.35 203.89,125.63 204.65,146.70 205.40,136.68 206.21,141.13 206.98,136.03 207.67,143.10 208.48,135.20 209.30,138.35 209.97,133.68 210.73,145.25 211.52,138.28 212.22,142.25 212.98,136.20 213.77,129.83 214.48,134.53 215.24,142.38 216.04,139.50 216.79,144.45 217.56,137.20 218.32,139.65 219.06,127.63 219.87,145.18 220.62,136.23 221.36,145.08 222.09,138.23 222.86,142.08 223.58,133.23 224.34,139.75 225.26,135.98 225.91,140.20 226.67,136.53 227.38,136.45 228.13,137.38 228.96,145.20 229.64,120.23 230.41,142.85 231.17,134.35 232.02,144.30 232.72,138.10 233.50,136.50 234.22,138.25 235.10,143.63 235.73,138.15 236.54,142.58 237.25,137.93 237.99,140.40 238.72,138.30 239.48,141.63 240.28,138.65 241.04,147.33 241.78,133.35 242.54,137.75 243.30,136.90 244.04,141.18 244.82,139.33 245.58,142.03 246.31,132.68 247.07,147.70 247.78,133.15 248.58,142.85 249.42,124.83 250.07,140.68 250.84,139.13 251.65,148.95 252.42,141.80 253.11,149.43 253.87,140.53 254.63,145.50 255.35,134.20 256.11,145.95 256.93,139.68 257.61,146.58 258.35,140.78 259.09,142.18 259.83,140.55 260.68,149.50 261.38,141.93 262.07,98.68 262.83,140.80 263.59,150.35 264.44,140.03 265.18,138.25 265.90,141.50 266.70,147.98 267.45,118.83 268.16,152.00 268.94,142.18 269.72,138.03 270.47,142.08 271.23,153.88 271.99,140.88 272.67,142.95 273.41,140.93 274.19,141.23 274.93,146.75 275.65,148.60 276.40,143.78 277.13,155.38 277.88,143.83 278.61,147.15 279.36,146.48 280.11,151.33 280.84,142.68 281.59,152.00 282.31,143.13 283.09,152.08 283.79,140.48 284.54,151.45 285.30,140.98 286.09,146.38 286.81,124.58 287.59,141.65 288.56,145.33 289.30,149.55 290.00,145.80 290.64,154.36 291.27,144.88 292.02,149.20 292.75,150.70 293.49,148.00 294.22,149.83 294.92,157.61 295.67,150.25 296.38,149.03 297.14,146.58 297.91,145.33 298.98,145.00 299.49,147.93 300.25,146.08 301.12,153.81 301.66,141.10 302.39,154.13 303.13,137.20 304.20,147.08 304.67,146.03 305.42,156.26 306.15,133.55 306.85,147.70 307.71,147.80 308.45,142.85 309.06,147.25 310.00,142.68 310.58,144.00 311.31,157.68 312.11,153.56 312.78,163.51 313.52,155.46 314.20,163.03 314.87,150.73 315.57,155.08 316.35,147.08 317.13,158.16 317.76,149.80 318.43,158.53 319.25,147.75 319.94,161.18 320.60,151.53 321.34,155.23 322.07,157.58 322.77,156.93 323.45,141.60 324.16,159.61 325.00,145.70 325.63,143.00 326.42,146.18 327.32,161.11 327.93,153.66 328.58,161.43 329.27,152.10 329.96,161.56 330.64,153.38 331.37,157.36 332.07,153.88 332.84,151.90 333.59,154.01 334.32,161.46 335.00,152.70 335.70,152.45 336.42,151.30 337.26,158.73 337.89,152.80 338.58,151.05 339.33,151.55 340.07,158.21 340.81,148.35 341.51,160.78 342.23,154.51 342.96,159.06 343.66,134.35 344.45,146.80 345.31,142.73 345.98,155.26 346.85,141.40 347.57,153.73 348.33,146.28 349.04,147.45 349.73,152.23 350.41,155.51 351.06,151.20 351.91,160.36 352.58,146.20 353.21,156.51 354.02,148.45 354.81,148.33 355.44,137.30 356.40,100.80 356.99,145.95 357.73,150.20 358.55,149.88 359.29,157.28 360.03,154.81 360.78,149.88 361.38,148.90 362.24,146.93 362.89,145.18 363.87,139.65 364.36,144.93 365.41,148.85 365.87,147.73 366.67,156.53 367.38,149.85 368.07,149.45 368.77,144.60 369.59,150.88 370.25,145.08 370.99,157.23 371.74,145.33 372.43,150.38 373.26,149.38 373.92,154.03 374.65,143.85 375.41,155.86 376.07,137.53 376.75,144.98 377.62,142.25 378.39,149.13 379.18,143.23 379.83,146.90 380.59,147.10 381.30,147.75 382.07,147.10 382.83,155.21 383.58,145.58 384.23,144.73 384.95,151.85 385.71,151.05 386.43,139.03 387.19,149.80 387.95,140.73 388.70,150.15 389.42,142.60 390.16,148.80 390.93,143.23 391.66,146.50 392.32,141.88 393.09,144.25 393.83,140.13 394.58,146.60 395.38,134.90 396.17,145.20 397.06,136.93 397.60,144.53 398.39,142.70 399.14,140.55 399.87,138.95 400.66,153.08 401.41,141.08 402.12,149.70 402.87,145.53 403.53,128.78 404.22,143.73 405.06,147.18 405.79,138.13 406.54,144.68 407.34,139.05 408.08,136.85 408.87,135.45 409.74,141.63 410.40,138.45 411.16,144.73 411.88,124.60 412.66,145.38 413.43,139.45 414.16,143.90 414.90,142.05 415.67,136.88 416.38,140.68 417.15,146.33 417.84,133.98 418.60,141.65 419.53,135.40 420.15,143.33 420.91,136.43 421.64,140.15 422.41,133.18 423.21,142.45 423.97,131.80 424.73,143.55 425.58,132.45 426.25,139.70 426.97,139.03 427.78,136.50 428.60,131.55 429.28,142.13 430.03,137.40 430.82,143.53 431.55,138.23 432.29,140.48 433.06,133.05 433.83,140.75 434.64,139.08 435.29,140.73 436.03,130.43 436.79,146.45 437.50,134.00 438.33,131.58 439.07,137.88 439.94,137.53 440.79,131.53 441.33,133.40 442.12,130.95 442.97,140.15 443.77,131.73 444.49,138.25 445.24,132.28 446.04,143.63 446.90,136.15 447.57,142.08 448.28,131.30 449.07,140.35 449.95,133.48 450.58,133.43 451.36,131.15 452.17,89.90 452.92,127.15 453.68,132.20 454.52,130.33 455.32,136.18 456.21,127.55 456.85,135.70 457.72,133.40 458.39,137.23 459.30,127.13 459.92,137.10 460.70,126.45 461.55,131.95 462.48,124.03 463.23,133.60 464.04,131.70 464.76,132.40 465.48,123.80 466.31,133.38 467.16,130.28 467.90,137.18 468.63,117.23 469.71,129.78 470.19,125.45 470.94,140.43 471.77,131.03 472.54,139.43 473.22,129.03 473.83,139.38 474.91,137.88 475.74,136.98 476.13,137.15 477.16,136.95 477.73,135.98 478.46,139.80 479.43,129.38 480.08,139.83 480.92,129.68 481.75,144.15 482.38,128.53 483.26,138.65 484.08,138.25 484.62,145.20 485.31,139.50 486.10,142.83 486.76,133.68 487.71,147.23 488.48,135.60 489.07,129.75 489.79,135.28 490.59,138.80 491.42,130.33 492.09,146.88 492.90,135.10 493.63,132.55 494.37,129.23 495.19,140.60 495.97,127.35 496.76,135.98 497.60,135.80 498.27,145.45 498.99,130.40 499.75,138.65 500.65,136.65 501.34,122.98 502.07,138.50 502.84,139.60 503.69,128.15 504.38,142.13 505.13,128.75 505.93,135.50 506.71,132.90 507.47,138.43 508.22,133.30 509.01,140.78 509.78,135.80 510.56,132.78 511.28,133.38 512.13,146.63 512.84,136.28 513.51,136.90 514.35,131.93 515.08,141.48 515.89,135.48 516.68,146.05 517.37,140.88 518.08,146.15 518.75,142.23 519.50,139.43 520.26,139.53 521.15,140.33 521.80,130.25 522.62,138.43 523.52,141.73 524.11,134.70 524.85,135.18 525.83,137.45 526.43,142.00 527.14,133.25 527.93,137.20 528.82,145.33 529.44,145.28 530.20,142.05 530.93,136.93 531.79,147.58 532.51,139.30 533.23,140.33 533.97,136.25 534.75,147.75 535.56,129.73 536.24,138.60 537.11,136.80 537.79,134.10 538.53,139.43 539.23,143.80 540.00,133.28 540.78,146.33 541.52,139.40 542.47,130.15 543.03,142.95 543.99,148.55 544.58,142.95 545.31,152.38 546.06,143.75 546.82,142.68 547.51,139.70 548.36,141.78 549.10,137.98 549.90,95.10 550.71,145.43 551.35,139.10 552.18,133.35 553.32,137.40 554.03,143.78 554.60,149.65 555.21,142.75 555.91,151.98 556.67,141.48 557.42,140.85 558.14,147.03 559.11,149.95 559.63,143.58 560.46,154.16 561.10,146.60 561.84,144.00 562.51,141.95 563.23,146.20 563.99,139.20 564.81,153.56 565.56,140.98 566.28,142.88 567.04,138.05 567.80,149.98 568.53,140.70 569.26,148.83 570.01,145.68 570.78,153.51 571.48,148.33 572.18,145.58 572.88,141.15 573.66,142.58 574.44,137.33 575.17,142.50 576.00,141.83 576.69,151.08 577.47,146.18 578.19,151.70 578.93,139.53 579.66,151.75 580.35,144.50 581.08,151.23 581.85,139.70 582.55,146.20 583.33,142.68 584.09,143.20 584.81,137.38 585.67,137.33 586.38,142.68 587.18,144.93 587.90,141.58 588.67,152.03 589.40,141.58 590.09,149.38 590.79,140.20 591.51,153.71 592.23,141.90 593.05,144.40 593.77,137.20 594.52,141.18 595.42,141.98 596.19,149.63 596.84,141.18 597.56,131.48 598.39,145.90 599.04,151.45 599.82,150.38 600.55,157.13 601.23,143.95 601.92,145.28 602.69,142.48 603.45,145.55 604.35,137.13 604.95,147.45 605.77,141.30 606.44,147.18 607.19,144.55 607.95,147.98 608.71,136.60 609.40,145.75 610.16,140.40 610.84,150.88 611.57,141.58 612.32,147.55 613.10,137.85 613.89,144.08 614.67,142.70 615.59,149.38 616.14,140.58 616.87,145.33 617.67,143.23 618.38,149.18 619.09,139.78 619.88,145.60 620.57,137.48 621.36,138.30 622.12,139.95 622.88,145.43 623.73,140.30 624.40,144.73 625.18,131.05 625.95,132.63 626.88,143.10 627.49,142.78 628.19,135.50 628.95,142.13 629.65,139.70 630.39,143.60 631.14,136.30 631.90,141.80 632.68,136.08 633.41,138.08 634.15,132.65 634.91,133.65 635.68,137.10 636.42,142.50 637.20,136.60 637.98,141.35 638.71,137.28 639.42,139.65 640.19,125.98 640.96,135.40 641.85,132.03 642.59,139.40 643.38,132.43 644.14,134.83 645.00,130.30 645.64,85.43 646.38,133.23 647.16,138.40 648.10,138.03 648.85,150.13 649.49,131.83 650.27,138.35 651.07,127.40 651.78,134.55 652.55,126.60 653.42,133.25 654.23,120.90 654.97,137.38 655.72,129.18 656.46,136.73 657.44,130.00 658.16,131.28 658.86,126.63 659.63,132.70 660.49,126.65 661.16,139.25 661.94,127.40 662.73,133.95 663.46,128.90 664.23,134.45 665.03,120.00 665.83,132.95 666.73,124.95 667.34,138.68 668.14,128.48 668.88,136.03 669.66,136.10 670.46,132.38 671.14,130.28 671.99,139.83 672.70,126.93 673.57,131.50 674.35,132.40 675.08,138.20 675.79,127.40 676.69,135.10 677.45,132.50 678.14,137.68 678.86,132.93 679.78,141.30 680.42,117.23 681.20,132.15 681.96,126.40 682.85,125.63 683.59,124.43 684.32,136.73 685.05,124.05 685.85,137.58 686.66,130.83 687.42,135.73 688.21,127.85 689.01,136.58 689.73,128.00 690.48,129.30 691.31,113.78 692.12,140.73 692.90,129.05 693.63,137.68 694.36,135.13 695.13,125.30 695.90,131.20 696.66,139.13 697.45,131.13 698.25,135.15 699.00,127.00 699.89,126.58 700.63,112.33 701.50,133.68 702.20,134.15 703.00,138.13 703.71,127.50 704.47,138.05 705.24,130.85 706.03,140.68 706.77,137.80 707.53,128.98 708.26,131.85 709.09,136.68 709.86,135.33 710.66,139.53 711.40,124.43 712.23,138.40 712.95,128.40 713.69,129.75 714.49,119.53 715.27,142.03 716.03,132.70 716.87,134.15 717.57,128.48 718.38,136.85 719.30,111.00 720.09,133.58 720.76,132.60 721.50,136.48 722.48,128.95 723.22,144.00 723.84,131.43 724.55,138.60 725.38,134.40 726.10,135.70 726.87,129.33 727.62,138.90 728.39,132.43 729.15,144.90 729.96,134.43 730.69,142.13 731.47,134.53 732.23,137.03 732.98,134.35 733.79,141.33 734.51,138.68 735.31,150.85 736.01,142.03 736.76,144.43 737.49,143.63 738.25,143.35 739.07,127.90 739.72,150.35 740.41,139.55 741.20,147.25 742.00,141.70 742.72,144.78 743.46,140.50 744.28,93.93 744.97,142.00 745.79,147.23 746.61,141.73 747.45,141.80 748.07,141.30 748.83,145.08 749.59,141.98 750.41,151.28 751.09,144.43 751.84,150.65 752.53,145.90 753.27,150.60 753.95,143.15 754.75,148.18 755.57,138.80 756.25,144.95 756.95,145.25 757.73,151.95 758.50,136.63 759.24,151.48 759.94,144.83 760.72,153.21 761.49,148.23 762.13,151.38 762.80,141.68 763.56,148.93 764.37,142.68 765.10,152.80 765.86,141.20 766.58,149.90 767.35,141.23 768.08,146.75 768.87,141.13 769.56,150.70 770.26,144.40 771.04,150.48 771.78,144.28 772.51,146.23 773.25,142.05 773.99,149.78 774.74,145.85 775.47,150.93 776.22,147.55 776.97,154.88 777.65,145.28 778.41,149.73 779.09,138.60 779.93,135.78 780.80,139.70 781.46,145.05 782.26,140.08 782.91,148.85 783.65,140.53 784.43,150.03 785.17,142.38 785.88,153.41 786.59,145.63 787.35,150.28 788.16,137.80 788.76,149.85 789.63,141.48 790.35,143.30 791.08,142.03 791.85,131.15 792.58,143.20 793.33,151.23 794.12,149.63 794.81,157.98 795.56,148.00 796.27,151.85 796.94,145.35 797.67,145.00 798.44,141.55 799.25,147.55 799.99,144.10 800.81,154.33 801.45,144.45 802.20,153.33 802.91,149.85 803.64,146.93 804.34,137.28 805.06,145.63 805.88,144.95 806.69,149.40 807.31,142.78 808.06,148.83 808.81,139.08 809.57,149.20 810.30,144.08 811.13,149.45 811.84,149.98 812.55,155.08 813.21,139.93 813.95,151.68 814.72,140.50 815.48,134.05 816.19,137.25 816.97,149.98 817.78,145.00 818.50,153.00 819.22,146.30 819.94,151.13 820.68,149.25 821.38,157.33 822.08,143.90 822.79,143.73 823.56,142.83 824.38,148.80 825.08,139.20 825.83,148.38 826.57,141.35 827.32,139.85 828.08,142.53 828.89,153.86 829.56,150.05 830.36,154.53 830.98,145.20 831.70,146.08 832.52,139.15 833.26,141.70 834.03,140.23 834.89,141.60 835.49,143.58 836.24,151.35 836.98,140.90 837.73,148.50 838.46,143.30 839.19,93.28 839.91,140.00 840.64,140.65 841.58,144.53 842.38,156.28 843.12,140.53 843.86,149.55 844.57,143.35 845.26,145.10 846.07,143.10 846.87,144.90 847.50,143.25 848.27,158.11 848.98,148.45 849.74,141.88 850.47,152.08 851.23,145.73 851.89,134.08 852.67,143.95 853.43,139.45 854.20,144.75 854.91,145.33 855.66,139.48 856.39,137.90 857.26,155.88 858.00,148.33 858.58,144.85 859.29,134.13 860.07,150.13 860.93,143.80 861.55,153.23 862.31,137.90 863.06,127.03 863.81,138.65 864.66,141.85 865.39,132.05 866.15,146.05 867.12,138.58 867.90,144.33 868.58,141.25 869.25,142.13 870.09,139.30 870.71,139.85 871.80,131.43 872.34,144.43 872.96,133.98 873.75,144.10 874.47,141.73 875.21,141.73 875.94,137.93 876.66,140.23 877.49,138.03 878.21,132.95 879.09,125.38 879.88,141.60 880.62,135.60 881.21,140.05 881.94,139.33 882.81,144.28 883.53,137.70 884.30,148.03 885.12,138.60 885.88,144.28 886.55,139.40 887.30,133.13 888.03,137.80 888.78,142.80 889.56,126.33 890.31,141.90 891.11,132.28 891.87,132.65 892.60,131.40 893.42,128.43 894.17,121.98 894.96,134.33 895.75,130.00 896.56,141.55 897.27,130.23 898.07,134.88 898.80,131.43 899.58,121.15 900.31,123.63 901.30,133.65 901.99,129.73 902.72,131.35 903.46,121.73 904.29,135.93 905.10,127.40 905.84,138.00 906.61,127.15 907.35,134.93 908.14,129.03 908.92,138.60 909.67,127.78 910.45,132.53 911.21,131.18 911.96,117.93 912.73,131.25 913.61,139.20 914.32,134.63 915.09,141.50 915.85,131.80 916.62,135.38 917.41,127.88 918.16,133.40 919.00,128.43 919.69,137.65 920.47,133.15 921.25,139.20 922.02,131.78 922.81,134.23 923.55,131.10 924.43,135.95 925.05,128.95 925.83,128.45 926.66,129.45 927.36,136.98 928.11,128.80 928.95,135.15 929.78,135.28 930.45,140.55 931.20,130.28 931.99,139.80 932.82,132.53 933.43,143.53 934.23,128.35 935.01,128.95 935.86,122.88 936.65,86.80 937.38,128.45 938.15,130.05 939.07,125.20 939.96,139.35 940.63,133.88 941.45,138.53 942.24,138.35 942.94,136.08 943.64,123.93 944.50,136.20 945.19,125.83 945.94,128.50 946.91,120.55 947.61,125.25 948.37,117.08 949.21,126.70 950.01,122.40 950.83,132.03 951.66,129.78 952.40,136.60 953.20,131.45 954.03,138.40 954.58,125.00 955.34,128.75 956.24,129.75 957.09,122.78 957.83,118.25 958.73,135.93 959.37,129.60 960.21,132.55 960.78,129.75 961.58,124.83 962.34,123.95 963.27,124.93 964.20,132.88 964.89,138.08 965.80,132.35 966.47,132.60 967.03,126.25 967.89,129.70 968.76,129.20 969.54,134.33 970.26,127.68 971.13,139.78 971.80,117.18 972.58,130.33 973.41,117.80 974.25,119.40 975.02,130.38 975.79,129.45 976.53,125.40 977.37,134.13 978.26,128.15 978.88,137.20 979.64,130.28 980.45,130.63 981.28,129.55 981.92,127.23 982.71,135.18 983.63,135.20 984.23,129.05 985.03,129.70 985.83,131.75 986.64,121.50 987.44,135.60 988.11,143.35 988.82,134.85 989.63,141.40 990.35,140.68 991.05,137.48 991.82,134.00 992.77,144.45 993.37,131.00 994.14,135.43 994.93,131.33 995.73,138.88 996.48,136.05 997.29,139.18 998.00,137.05 998.76,136.70 999.52,134.83 1000.32,143.63 1001.06,137.53 1001.85,146.18 1002.55,140.30 1003.36,141.90 1004.12,136.23 1004.84,146.78 1005.56,141.75 1006.29,141.90 1007.01,144.15 1007.77,150.98 1008.49,133.75 1009.26,141.85 1010.04,135.48 1010.86,133.93 1011.76,139.35 1012.33,141.93 1013.08,130.28 1013.84,147.83 1014.87,142.18 1015.32,145.25 1016.08,143.58 1016.84,147.05 1017.59,141.68 1018.35,150.08 1019.00,145.55 1019.77,147.25 1020.50,137.83 1021.29,139.63 1022.09,133.35 1022.84,142.28 1023.53,139.20 1024.30,139.40 1025.05,127.78 1025.81,144.90 1026.65,137.60 1027.36,144.60 1028.10,132.55 1028.90,148.35 1029.66,143.45 1030.39,137.65 1031.11,141.20 1031.91,151.90 1032.65,141.03 1033.32,144.38 1034.08,134.33 1034.76,86.03 1035.55,140.40 1036.43,147.25 1037.32,145.55 1037.97,149.55 1038.64,139.15 1039.40,143.15 1040.18,134.38 1040.94,142.28 1041.74,130.80 1042.46,143.18 1043.37,133.90 1044.03,147.05 1044.77,131.15 1045.50,143.23 1046.24,139.88 1047.01,132.33 1047.80,134.58 1048.56,136.00 1049.30,138.35 1050.12,144.10 1050.84,139.20 1051.63,144.63 1052.29,145.20 1053.22,146.28 1053.73,140.45 1054.60,139.80 1055.25,139.50 1056.03,143.30 1056.81,137.85 1057.65,136.98 1058.31,137.38 1059.22,133.40 1059.87,129.80 1060.62,137.73 1061.44,146.45 1062.17,147.08 1062.89,131.60 1063.64,137.88 1064.45,133.63 1065.19,141.08 1065.93,134.18 1066.68,143.00 1067.43,141.18 1068.22,147.65 1068.91,142.45 1069.64,137.25 1070.54,136.65 1071.24,135.75 1071.92,136.25 1072.69,140.50 1073.47,137.88 1074.32,143.40 1074.97,133.60 1075.73,137.78 1076.51,131.03 1077.30,133.40 1078.03,133.55 1078.81,135.18 1079.57,128.83 1080.39,140.33 1081.10,125.58 1081.88,137.60 1082.66,131.10 1083.46,119.85 1084.18,121.13 1084.99,134.30 1085.85,132.30 1086.60,135.58 1087.35,124.65 1088.22,134.63 1088.86,129.40 1089.77,135.53 1090.47,120.83 1091.24,137.70 1092.01,128.93 1092.74,140.40 1093.62,132.78 1094.29,135.30 1095.06,125.65 1095.82,130.03 1096.59,130.75 1097.42,131.58 1098.15,130.33 1098.92,137.58 1099.69,129.43 1100.45,135.50 1101.23,129.75 1102.01,134.20 1102.81,124.60 1103.56,124.28 1104.35,128.38 1105.15,137.10 1105.98,131.15 1106.68,137.78 1107.43,133.28 1108.21,129.88 1109.05,132.53 1109.76,145.10 1110.64,126.88 1111.21,142.45 1111.98,133.08 1112.81,141.70 1113.57,125.25 1114.31,136.40 1115.15,142.95 1115.89,141.83 1116.56,130.00 1117.40,143.38 1118.21,135.38 1118.92,139.68 1119.59,135.60 1120.41,134.88 1121.26,130.23 1121.94,136.93 1122.63,134.90 1123.52,140.70 1124.21,132.55 1124.94,136.70 1125.67,131.65 1126.45,144.53 1127.32,130.20 1127.98,135.65 1128.80,126.10 1129.55,139.20 1130.33,126.80 1131.11,126.15 1131.93,131.83 1132.67,81.65 1133.52,128.38 1134.23,134.95 1135.26,137.45 1135.96,142.48 1136.64,113.60 1137.38,131.18 1138.11,140.00 1138.98,141.85 1139.72,121.48 1140.46,138.00 1141.22,133.10 1142.02,141.85 1142.79,137.58 1143.57,140.35 1144.39,130.48 1145.02,137.15 1145.92,135.70 1146.61,138.73 1147.36,133.38 1148.32,142.58 1148.93,133.68 1149.68,137.23 1150.42,135.88 1151.20,139.60 1152.05,129.88 1152.80,132.55 1153.50,130.25 1154.29,137.70 1155.14,128.98 1156.00,141.20 1156.61,115.28 1157.39,137.70 1158.14,140.85 1159.12,143.25 1159.60,137.60 1160.35,139.08 1161.13,131.03 1161.94,139.13 1162.75,134.43 1163.50,144.05 1164.25,138.60 1164.98,143.50 1165.75,137.73 1166.51,144.90 1167.20,134.63 1167.92,144.60 1168.65,136.10 1169.44,133.28 1170.16,141.15 1170.94,139.83 1171.71,134.18 1172.69,145.28 1173.35,134.75 1174.09,142.10 1174.85,121.20 1175.54,140.75 1176.31,137.00 1177.11,146.50" fill="none" stroke="#0891b2" stroke-width=".8" opacity=".65"/><text x="545" y="525" fill="#0891b2">A2</text>
<text x="65" y="495">0 s</text><text x="1120" y="495">20.0 s</text></svg>